<svg xmlns="http://www.w3.org/2000/svg" xmlns:xlink="http://www.w3.org/1999/xlink" style="margin:auto;background:#f1f2f3;display:block;z-index:1;position:relative" width="1141" height="862" preserveAspectRatio="xMidYMid" viewBox="0 0 1141 862">
<g transform="translate(570.5,431) scale(1,1) translate(-570.5,-431)"><defs>
<linearGradient id="lg-0.9935326339782813" x1="0" x2="0" y1="0" y2="1">
  <stop stop-color="#292664" offset="0.3"></stop>
  <stop stop-color="#667395" offset="0.6499999999999999"></stop>
  <stop stop-color="#667395" offset="1"></stop>
</linearGradient>
<linearGradient id="fg-lg-0.9935326339782813" x1="0" x2="0" y1="0" y2="1">
  <stop stop-color="#292664" stop-opacity="1" offset="0.3"></stop>
  <stop stop-color="#667395" stop-opacity="0.66" offset="0.6499999999999999"></stop>
  <stop stop-color="#667395" stop-opacity="0" offset="1"></stop>
</linearGradient>
<style type="text/css">
  path { fill: none; stroke: #94a9ce; stroke-width: 2px }
</style>
</defs>
<rect x="0" y="0" width="1141" height="862" fill="url(#lg-0.9935326339782813)"></rect><path d="M0 258.59999999999997 L-7987 862"></path><path d="M8.776923076923078 258.59999999999997 L-7855.346153846154 862"></path><path d="M17.553846153846155 258.59999999999997 L-7723.692307692308 862"></path><path d="M26.33076923076923 258.59999999999997 L-7592.038461538462 862"></path><path d="M35.10769230769231 258.59999999999997 L-7460.384615384615 862"></path><path d="M43.88461538461539 258.59999999999997 L-7328.7307692307695 862"></path><path d="M52.66153846153846 258.59999999999997 L-7197.076923076923 862"></path><path d="M61.43846153846154 258.59999999999997 L-7065.423076923077 862"></path><path d="M70.21538461538462 258.59999999999997 L-6933.7692307692305 862"></path><path d="M78.99230769230769 258.59999999999997 L-6802.115384615385 862"></path><path d="M87.76923076923077 258.59999999999997 L-6670.461538461539 862"></path><path d="M96.54615384615384 258.59999999999997 L-6538.807692307692 862"></path><path d="M105.32307692307693 258.59999999999997 L-6407.153846153846 862"></path><path d="M114.1 258.59999999999997 L-6275.5 862"></path><path d="M122.87692307692308 258.59999999999997 L-6143.846153846154 862"></path><path d="M131.65384615384616 258.59999999999997 L-6012.192307692308 862"></path><path d="M140.43076923076924 258.59999999999997 L-5880.538461538461 862"></path><path d="M149.2076923076923 258.59999999999997 L-5748.884615384615 862"></path><path d="M157.98461538461538 258.59999999999997 L-5617.2307692307695 862"></path><path d="M166.76153846153846 258.59999999999997 L-5485.576923076923 862"></path><path d="M175.53846153846155 258.59999999999997 L-5353.923076923077 862"></path><path d="M184.3153846153846 258.59999999999997 L-5222.2692307692305 862"></path><path d="M193.09230769230768 258.59999999999997 L-5090.615384615385 862"></path><path d="M201.86923076923077 258.59999999999997 L-4958.961538461539 862"></path><path d="M210.64615384615385 258.59999999999997 L-4827.307692307692 862"></path><path d="M219.42307692307693 258.59999999999997 L-4695.653846153846 862"></path><path d="M228.2 258.59999999999997 L-4564 862"></path><path d="M236.97692307692307 258.59999999999997 L-4432.346153846154 862"></path><path d="M245.75384615384615 258.59999999999997 L-4300.692307692308 862"></path><path d="M254.53076923076924 258.59999999999997 L-4169.038461538461 862"></path><path d="M263.3076923076923 258.59999999999997 L-4037.3846153846152 862"></path><path d="M272.0846153846154 258.59999999999997 L-3905.730769230769 862"></path><path d="M280.8615384615385 258.59999999999997 L-3774.076923076923 862"></path><path d="M289.6384615384615 258.59999999999997 L-3642.423076923077 862"></path><path d="M298.4153846153846 258.59999999999997 L-3510.7692307692305 862"></path><path d="M307.1923076923077 258.59999999999997 L-3379.1153846153848 862"></path><path d="M315.96923076923076 258.59999999999997 L-3247.461538461538 862"></path><path d="M324.74615384615385 258.59999999999997 L-3115.8076923076924 862"></path><path d="M333.5230769230769 258.59999999999997 L-2984.1538461538457 862"></path><path d="M342.3 258.59999999999997 L-2852.5 862"></path><path d="M351.0769230769231 258.59999999999997 L-2720.8461538461543 862"></path><path d="M359.8538461538462 258.59999999999997 L-2589.1923076923076 862"></path><path d="M368.6307692307692 258.59999999999997 L-2457.538461538462 862"></path><path d="M377.4076923076923 258.59999999999997 L-2325.8846153846152 862"></path><path d="M386.18461538461537 258.59999999999997 L-2194.2307692307695 862"></path><path d="M394.96153846153845 258.59999999999997 L-2062.576923076923 862"></path><path d="M403.73846153846154 258.59999999999997 L-1930.9230769230771 862"></path><path d="M412.5153846153846 258.59999999999997 L-1799.2692307692305 862"></path><path d="M421.2923076923077 258.59999999999997 L-1667.6153846153848 862"></path><path d="M430.0692307692308 258.59999999999997 L-1535.961538461538 862"></path><path d="M438.84615384615387 258.59999999999997 L-1404.3076923076924 862"></path><path d="M447.62307692307695 258.59999999999997 L-1272.6538461538457 862"></path><path d="M456.4 258.59999999999997 L-1141 862"></path><path d="M465.17692307692306 258.59999999999997 L-1009.3461538461543 862"></path><path d="M473.95384615384614 258.59999999999997 L-877.6923076923076 862"></path><path d="M482.7307692307692 258.59999999999997 L-746.0384615384619 862"></path><path d="M491.5076923076923 258.59999999999997 L-614.3846153846152 862"></path><path d="M500.2846153846154 258.59999999999997 L-482.7307692307695 862"></path><path d="M509.0615384615385 258.59999999999997 L-351.07692307692287 862"></path><path d="M517.8384615384615 258.59999999999997 L-219.42307692307713 862"></path><path d="M526.6153846153846 258.59999999999997 L-87.76923076923049 862"></path><path d="M535.3923076923077 258.59999999999997 L43.884615384615245 862"></path><path d="M544.1692307692308 258.59999999999997 L175.5384615384619 862"></path><path d="M552.9461538461538 258.59999999999997 L307.19230769230853 862"></path><path d="M561.723076923077 258.59999999999997 L438.84615384615427 862"></path><path d="M570.5 258.59999999999997 L570.5 862"></path><path d="M579.276923076923 258.59999999999997 L702.1538461538457 862"></path><path d="M588.0538461538462 258.59999999999997 L833.8076923076915 862"></path><path d="M596.8307692307692 258.59999999999997 L965.461538461539 862"></path><path d="M605.6076923076923 258.59999999999997 L1097.1153846153848 862"></path><path d="M614.3846153846154 258.59999999999997 L1228.7692307692305 862"></path><path d="M623.1615384615385 258.59999999999997 L1360.4230769230762 862"></path><path d="M631.9384615384615 258.59999999999997 L1492.0769230769238 862"></path><path d="M640.7153846153847 258.59999999999997 L1623.7307692307695 862"></path><path d="M649.4923076923077 258.59999999999997 L1755.3846153846152 862"></path><path d="M658.2692307692307 258.59999999999997 L1887.038461538461 862"></path><path d="M667.0461538461539 258.59999999999997 L2018.6923076923085 862"></path><path d="M675.8230769230769 258.59999999999997 L2150.3461538461543 862"></path><path d="M684.6 258.59999999999997 L2282 862"></path><path d="M693.376923076923 258.59999999999997 L2413.6538461538457 862"></path><path d="M702.1538461538462 258.59999999999997 L2545.3076923076915 862"></path><path d="M710.9307692307692 258.59999999999997 L2676.961538461539 862"></path><path d="M719.7076923076924 258.59999999999997 L2808.6153846153848 862"></path><path d="M728.4846153846154 258.59999999999997 L2940.2692307692305 862"></path><path d="M737.2615384615384 258.59999999999997 L3071.923076923076 862"></path><path d="M746.0384615384615 258.59999999999997 L3203.576923076924 862"></path><path d="M754.8153846153846 258.59999999999997 L3335.2307692307695 862"></path><path d="M763.5923076923077 258.59999999999997 L3466.8846153846152 862"></path><path d="M772.3692307692307 258.59999999999997 L3598.538461538461 862"></path><path d="M781.1461538461539 258.59999999999997 L3730.1923076923085 862"></path><path d="M789.9230769230769 258.59999999999997 L3861.8461538461543 862"></path><path d="M798.7 258.59999999999997 L3993.5 862"></path><path d="M807.4769230769231 258.59999999999997 L4125.153846153846 862"></path><path d="M816.2538461538461 258.59999999999997 L4256.8076923076915 862"></path><path d="M825.0307692307692 258.59999999999997 L4388.461538461539 862"></path><path d="M833.8076923076923 258.59999999999997 L4520.115384615385 862"></path><path d="M842.5846153846154 258.59999999999997 L4651.7692307692305 862"></path><path d="M851.3615384615384 258.59999999999997 L4783.423076923076 862"></path><path d="M860.1384615384616 258.59999999999997 L4915.076923076924 862"></path><path d="M868.9153846153846 258.59999999999997 L5046.7307692307695 862"></path><path d="M877.6923076923077 258.59999999999997 L5178.384615384615 862"></path><path d="M886.4692307692308 258.59999999999997 L5310.038461538461 862"></path><path d="M895.2461538461539 258.59999999999997 L5441.6923076923085 862"></path><path d="M904.0230769230769 258.59999999999997 L5573.346153846154 862"></path><path d="M912.8 258.59999999999997 L5705 862"></path><path d="M921.5769230769231 258.59999999999997 L5836.653846153846 862"></path><path d="M930.3538461538461 258.59999999999997 L5968.3076923076915 862"></path><path d="M939.1307692307693 258.59999999999997 L6099.961538461539 862"></path><path d="M947.9076923076923 258.59999999999997 L6231.615384615385 862"></path><path d="M956.6846153846154 258.59999999999997 L6363.2692307692305 862"></path><path d="M965.4615384615385 258.59999999999997 L6494.923076923076 862"></path><path d="M974.2384615384616 258.59999999999997 L6626.576923076924 862"></path><path d="M983.0153846153846 258.59999999999997 L6758.2307692307695 862"></path><path d="M991.7923076923076 258.59999999999997 L6889.884615384615 862"></path><path d="M1000.5692307692308 258.59999999999997 L7021.538461538461 862"></path><path d="M1009.3461538461538 258.59999999999997 L7153.1923076923085 862"></path><path d="M1018.123076923077 258.59999999999997 L7284.846153846154 862"></path><path d="M1026.9 258.59999999999997 L7416.5 862"></path><path d="M1035.676923076923 258.59999999999997 L7548.153846153846 862"></path><path d="M1044.4538461538461 258.59999999999997 L7679.8076923076915 862"></path><path d="M1053.2307692307693 258.59999999999997 L7811.461538461539 862"></path><path d="M1062.0076923076922 258.59999999999997 L7943.115384615385 862"></path><path d="M1070.7846153846153 258.59999999999997 L8074.7692307692305 862"></path><path d="M1079.5615384615385 258.59999999999997 L8206.423076923076 862"></path><path d="M1088.3384615384616 258.59999999999997 L8338.076923076924 862"></path><path d="M1097.1153846153845 258.59999999999997 L8469.73076923077 862"></path><path d="M1105.8923076923077 258.59999999999997 L8601.384615384617 862"></path><path d="M1114.6692307692308 258.59999999999997 L8733.038461538461 862"></path><path d="M1123.446153846154 258.59999999999997 L8864.692307692309 862"></path><path d="M1132.2230769230769 258.59999999999997 L8996.346153846152 862"></path><path d="M1141 258.59999999999997 L9128 862"></path><g>
<path d="M0 258.59999999999997 L1141 258.59999999999997"></path>
<animateTransform attributeName="transform" type="translate" repeatCount="indefinite" calcMode="linear" keyTimes="0;1" values="0 0;0 4.570130177514793" begin="0s" dur="0.8333333333333334s"></animateTransform>

</g><g>
<path d="M0 263.17013017751475 L1141 263.17013017751475"></path>
<animateTransform attributeName="transform" type="translate" repeatCount="indefinite" calcMode="linear" keyTimes="0;1" values="0 0;0 9.140260355029586" begin="0s" dur="0.8333333333333334s"></animateTransform>

</g><g>
<path d="M0 272.3103905325443 L1141 272.3103905325443"></path>
<animateTransform attributeName="transform" type="translate" repeatCount="indefinite" calcMode="linear" keyTimes="0;1" values="0 0;0 13.710390532544379" begin="0s" dur="0.8333333333333334s"></animateTransform>

</g><g>
<path d="M0 286.02078106508867 L1141 286.02078106508867"></path>
<animateTransform attributeName="transform" type="translate" repeatCount="indefinite" calcMode="linear" keyTimes="0;1" values="0 0;0 18.28052071005917" begin="0s" dur="0.8333333333333334s"></animateTransform>

</g><g>
<path d="M0 304.30130177514786 L1141 304.30130177514786"></path>
<animateTransform attributeName="transform" type="translate" repeatCount="indefinite" calcMode="linear" keyTimes="0;1" values="0 0;0 22.850650887573963" begin="0s" dur="0.8333333333333334s"></animateTransform>

</g><g>
<path d="M0 327.15195266272184 L1141 327.15195266272184"></path>
<animateTransform attributeName="transform" type="translate" repeatCount="indefinite" calcMode="linear" keyTimes="0;1" values="0 0;0 27.420781065088754" begin="0s" dur="0.8333333333333334s"></animateTransform>

</g><g>
<path d="M0 354.5727337278106 L1141 354.5727337278106"></path>
<animateTransform attributeName="transform" type="translate" repeatCount="indefinite" calcMode="linear" keyTimes="0;1" values="0 0;0 31.990911242603545" begin="0s" dur="0.8333333333333334s"></animateTransform>

</g><g>
<path d="M0 386.56364497041415 L1141 386.56364497041415"></path>
<animateTransform attributeName="transform" type="translate" repeatCount="indefinite" calcMode="linear" keyTimes="0;1" values="0 0;0 36.561041420118336" begin="0s" dur="0.8333333333333334s"></animateTransform>

</g><g>
<path d="M0 423.1246863905325 L1141 423.1246863905325"></path>
<animateTransform attributeName="transform" type="translate" repeatCount="indefinite" calcMode="linear" keyTimes="0;1" values="0 0;0 41.13117159763313" begin="0s" dur="0.8333333333333334s"></animateTransform>

</g><g>
<path d="M0 464.2558579881656 L1141 464.2558579881656"></path>
<animateTransform attributeName="transform" type="translate" repeatCount="indefinite" calcMode="linear" keyTimes="0;1" values="0 0;0 45.70130177514792" begin="0s" dur="0.8333333333333334s"></animateTransform>

</g><g>
<path d="M0 509.9571597633135 L1141 509.9571597633135"></path>
<animateTransform attributeName="transform" type="translate" repeatCount="indefinite" calcMode="linear" keyTimes="0;1" values="0 0;0 50.27143195266271" begin="0s" dur="0.8333333333333334s"></animateTransform>

</g><g>
<path d="M0 560.2285917159762 L1141 560.2285917159762"></path>
<animateTransform attributeName="transform" type="translate" repeatCount="indefinite" calcMode="linear" keyTimes="0;1" values="0 0;0 54.8415621301775" begin="0s" dur="0.8333333333333334s"></animateTransform>

</g><g>
<path d="M0 615.0701538461537 L1141 615.0701538461537"></path>
<animateTransform attributeName="transform" type="translate" repeatCount="indefinite" calcMode="linear" keyTimes="0;1" values="0 0;0 59.41169230769229" begin="0s" dur="0.8333333333333334s"></animateTransform>

</g><g>
<path d="M0 674.481846153846 L1141 674.481846153846"></path>
<animateTransform attributeName="transform" type="translate" repeatCount="indefinite" calcMode="linear" keyTimes="0;1" values="0 0;0 63.98182248520708" begin="0s" dur="0.8333333333333334s"></animateTransform>

</g><g>
<path d="M0 738.4636686390531 L1141 738.4636686390531"></path>
<animateTransform attributeName="transform" type="translate" repeatCount="indefinite" calcMode="linear" keyTimes="0;1" values="0 0;0 68.55195266272187" begin="0s" dur="0.8333333333333334s"></animateTransform>

</g><g>
<path d="M0 807.015621301775 L1141 807.015621301775"></path>
<animateTransform attributeName="transform" type="translate" repeatCount="indefinite" calcMode="linear" keyTimes="0;1" values="0 0;0 73.12208284023667" begin="0s" dur="0.8333333333333334s"></animateTransform>

</g><g>
<path d="M0 880.1377041420117 L1141 880.1377041420117"></path>
<animateTransform attributeName="transform" type="translate" repeatCount="indefinite" calcMode="linear" keyTimes="0;1" values="0 0;0 77.69221301775147" begin="0s" dur="0.8333333333333334s"></animateTransform>

</g><rect x="0" y="0" width="1141" height="862" fill="url(#fg-lg-0.9935326339782813)"></rect></g>
</svg>