<svg xmlns="http://www.w3.org/2000/svg" xmlns:xlink="http://www.w3.org/1999/xlink" style="margin:auto;background:#f1f2f3;display:block;z-index:1;position:relative" width="1792" height="862" preserveAspectRatio="xMidYMid" viewBox="0 0 1792 862">
<g transform="translate(896,431) scale(1,1) translate(-896,-431)"><path id="path0" d="M 87.09628824713334 703.3082594775981
c 0 37.39032231510078 -9.148695885609765 10.739773430933203 -19.88846931654297 10.739773430933203
S 47.31934961404741 740.6985817926989 47.31934961404741 703.3082594775981
s 9.148695885609765 -10.739773430933203 19.88846931654297 -10.739773430933203
S 87.09628824713334 665.9179371624973 87.09628824713334 703.3082594775981
z" fill="none" stroke="none"></path>
<circle cx="0" cy="0" r="5.935446485348911" fill="#689cc5">
  <animateMotion begin="-5.896199891267548s" dur="11.38s" repeatCount="indefinite">
    <mpath xlink:href="#path0"></mpath>
  </animateMotion>
</circle><path id="path1" d="M 69.76894776609029 351.6611379870575
c 0 31.01902395750886 -7.589761181092593 8.909719647369567 -16.499480828462158 8.909719647369567
S 36.76998610916597 382.68016194456635 36.76998610916597 351.6611379870575
s 7.589761181092593 -8.909719647369567 16.499480828462158 -8.909719647369567
S 69.76894776609029 320.6421140295486 69.76894776609029 351.6611379870575
z" fill="none" stroke="none"></path>
<circle cx="0" cy="0" r="5.310871897937176" fill="#5e6fa3">
  <animateMotion begin="-3.1033908002827175s" dur="11.38s" repeatCount="indefinite">
    <mpath xlink:href="#path1"></mpath>
  </animateMotion>
</circle><path id="path2" d="M 1167.9137333759259 674.1811221837655
c 0 34.89820837133415 -8.538923324900907 10.023953468361936 -18.562876793262845 10.023953468361936
S 1130.7879797894002 709.0793305550997 1130.7879797894002 674.1811221837655
s 8.538923324900907 -10.023953468361936 18.562876793262845 -10.023953468361936
S 1167.9137333759259 639.2829138124314 1167.9137333759259 674.1811221837655
z" fill="none" stroke="none"></path>
<circle cx="0" cy="0" r="4.04806371258074" fill="#3b4368">
  <animateMotion begin="-0.5431906212030602s" dur="11.38s" repeatCount="indefinite">
    <mpath xlink:href="#path2"></mpath>
  </animateMotion>
</circle><path id="path3" d="M 1137.2573916092015 451.9789187301281
c 0 33.72711830191132 -8.25238001004213 9.687576533527718 -17.93995654356985 9.687576533527718
S 1101.3774785220617 485.70603703203943 1101.3774785220617 451.9789187301281
s 8.25238001004213 -9.687576533527718 17.93995654356985 -9.687576533527718
S 1137.2573916092015 418.25180042821677 1137.2573916092015 451.9789187301281
z" fill="none" stroke="none"></path>
<circle cx="0" cy="0" r="7.647884980025827" fill="#191d3a">
  <animateMotion begin="-1.5951113186783499s" dur="11.38s" repeatCount="indefinite">
    <mpath xlink:href="#path3"></mpath>
  </animateMotion>
</circle><path id="path4" d="M 1595.5851928492636 455.0789576915941
c 0 36.55859447957146 -8.945188010958974 10.500872882430102 -19.446060893389074 10.500872882430102
S 1556.6930710624854 491.63755217116557 1556.6930710624854 455.0789576915941
s 8.945188010958974 -10.500872882430102 19.446060893389074 -10.500872882430102
S 1595.5851928492636 418.52036321202263 1595.5851928492636 455.0789576915941
z" fill="none" stroke="none"></path>
<circle cx="0" cy="0" r="4.32190441183694" fill="#689cc5">
  <animateMotion begin="-11.320706458748127s" dur="11.38s" repeatCount="indefinite">
    <mpath xlink:href="#path4"></mpath>
  </animateMotion>
</circle><path id="path5" d="M 147.244191982622 610.7835090364413
c 0 24.268910317373745 -5.938137630846767 6.970857218820119 -12.908994849666886 6.970857218820119
S 121.42620228328822 635.052419353815 121.42620228328822 610.7835090364413
s 5.938137630846767 -6.970857218820119 12.908994849666886 -6.970857218820119
S 147.244191982622 586.5145987190675 147.244191982622 610.7835090364413
z" fill="none" stroke="none"></path>
<circle cx="0" cy="0" r="4.454712303534434" fill="#191d3a">
  <animateMotion begin="-4.9646152751102965s" dur="11.38s" repeatCount="indefinite">
    <mpath xlink:href="#path5"></mpath>
  </animateMotion>
</circle><path id="path6" d="M 189.40972169264148 49.60042824753914
c 0 19.854929045582313 -4.858120936685034 5.703011534369388 -10.561132471054421 5.703011534369388
S 168.28745675053267 69.45535729312145 168.28745675053267 49.60042824753914
s 4.858120936685034 -5.703011534369388 10.561132471054421 -5.703011534369388
S 189.40972169264148 29.74549920195683 189.40972169264148 49.60042824753914
z" fill="none" stroke="none"></path>
<circle cx="0" cy="0" r="4.734258413750062" fill="#689cc5">
  <animateMotion begin="-3.033554497732021s" dur="11.38s" repeatCount="indefinite">
    <mpath xlink:href="#path6"></mpath>
  </animateMotion>
</circle><path id="path7" d="M 620.1141734053404 301.81910520327233
c 0 26.82339210103529 -6.563170407700123 7.7045913481697115 -14.267761755869834 7.7045913481697115
S 591.5786498936006 328.6424973043076 591.5786498936006 301.81910520327233
s 6.563170407700123 -7.7045913481697115 14.267761755869834 -7.7045913481697115
S 620.1141734053404 274.99571310223706 620.1141734053404 301.81910520327233
z" fill="none" stroke="none"></path>
<circle cx="0" cy="0" r="5.335493612780578" fill="#d9dbee">
  <animateMotion begin="-7.588886493837195s" dur="11.38s" repeatCount="indefinite">
    <mpath xlink:href="#path7"></mpath>
  </animateMotion>
</circle><path id="path8" d="M 243.01828589989316 393.0356423944834
c 0 30.84254121020212 -7.546579232283497 8.859027794419758 -16.405607026703255 8.859027794419758
S 210.20707184648666 423.8781836046855 210.20707184648666 393.0356423944834
s 7.546579232283497 -8.859027794419758 16.405607026703255 -8.859027794419758
S 243.01828589989316 362.19310118428126 243.01828589989316 393.0356423944834
z" fill="none" stroke="none"></path>
<circle cx="0" cy="0" r="5.040990774092843" fill="#689cc5">
  <animateMotion begin="-2.2022520846787854s" dur="11.38s" repeatCount="indefinite">
    <mpath xlink:href="#path8"></mpath>
  </animateMotion>
</circle><path id="path9" d="M 632.1494610237067 192.21990021110145
c 0 30.574266933815448 -7.480937654018672 8.781970289500181 -16.262907943518854 8.781970289500181
S 599.6236451366691 222.79416714491688 599.6236451366691 192.21990021110145
s 7.480937654018672 -8.781970289500181 16.262907943518854 -8.781970289500181
S 632.1494610237067 161.645633277286 632.1494610237067 192.21990021110145
z" fill="none" stroke="none"></path>
<circle cx="0" cy="0" r="5.509226775874989" fill="#191d3a">
  <animateMotion begin="-9.083089666336912s" dur="11.38s" repeatCount="indefinite">
    <mpath xlink:href="#path9"></mpath>
  </animateMotion>
</circle><path id="path10" d="M 219.19505412165046 104.44265267172962
c 0 36.927105133254656 -9.035355511328266 10.606721687211444 -19.64207719853971 10.606721687211444
S 179.91089972457104 141.36975780498426 179.91089972457104 104.44265267172962
s 9.035355511328266 -10.606721687211444 19.64207719853971 -10.606721687211444
S 219.19505412165046 67.51554753847496 219.19505412165046 104.44265267172962
z" fill="none" stroke="none"></path>
<circle cx="0" cy="0" r="5.176089973786537" fill="#93dbe9">
  <animateMotion begin="-5.543569060350075s" dur="11.38s" repeatCount="indefinite">
    <mpath xlink:href="#path10"></mpath>
  </animateMotion>
</circle><path id="path11" d="M 222.80345508837047 113.8377698810682
c 0 20.671960548097104 -5.058032900066312 5.93769079573002 -10.99572369579633 5.93769079573002
S 200.8120076967778 134.5097304291653 200.8120076967778 113.8377698810682
s 5.058032900066312 -5.93769079573002 10.99572369579633 -5.93769079573002
S 222.80345508837047 93.1658093329711 222.80345508837047 113.8377698810682
z" fill="none" stroke="none"></path>
<circle cx="0" cy="0" r="6.830311950749116" fill="#93dbe9">
  <animateMotion begin="-5.737511906051592s" dur="11.38s" repeatCount="indefinite">
    <mpath xlink:href="#path11"></mpath>
  </animateMotion>
</circle><path id="path12" d="M 69.35283154883184 491.19036337831886
c 0 18.956688921038772 -4.638338778552039 5.445006392213264 -10.083345170765304 5.445006392213264
S 49.18614120730124 510.14705229935765 49.18614120730124 491.19036337831886
s 4.638338778552039 -5.445006392213264 10.083345170765304 -5.445006392213264
S 69.35283154883184 472.2336744572801 69.35283154883184 491.19036337831886
z" fill="none" stroke="none"></path>
<circle cx="0" cy="0" r="6.845015355286933" fill="#93dbe9">
  <animateMotion begin="-11.194665728865784s" dur="11.38s" repeatCount="indefinite">
    <mpath xlink:href="#path12"></mpath>
  </animateMotion>
</circle><path id="path13" d="M 1330.7756778093342 491.4676923010897
c 0 33.12358725887596 -8.104707520788796 9.514221872230328 -17.618929393019126 9.514221872230328
S 1295.5378190232962 524.5912795599656 1295.5378190232962 491.4676923010897
s 8.104707520788796 -9.514221872230328 17.618929393019126 -9.514221872230328
S 1330.7756778093342 458.34410504221376 1330.7756778093342 491.4676923010897
z" fill="none" stroke="none"></path>
<circle cx="0" cy="0" r="5.875795120337489" fill="#d9dbee">
  <animateMotion begin="-2.8457195595567306s" dur="11.38s" repeatCount="indefinite">
    <mpath xlink:href="#path13"></mpath>
  </animateMotion>
</circle><path id="path14" d="M 437.7807654500674 111.94900796946224
c 0 26.93826748977896 -6.591278215584213 7.737587470468424 -14.328865686052637 7.737587470468424
S 409.1230340779621 138.8872754592412 409.1230340779621 111.94900796946224
s 6.591278215584213 -7.737587470468424 14.328865686052637 -7.737587470468424
S 437.7807654500674 85.01074047968328 437.7807654500674 111.94900796946224
z" fill="none" stroke="none"></path>
<circle cx="0" cy="0" r="5.654751832235916" fill="#689cc5">
  <animateMotion begin="-6.617127001831404s" dur="11.38s" repeatCount="indefinite">
    <mpath xlink:href="#path14"></mpath>
  </animateMotion>
</circle><path id="path15" d="M 603.2437931237755 147.30160549657575
c 0 30.090148229089642 -7.3624830773304435 8.642914916866173 -16.005397994196617 8.642914916866173
S 571.2329971353822 177.39175372566538 571.2329971353822 147.30160549657575
s 7.3624830773304435 -8.642914916866173 16.005397994196617 -8.642914916866173
S 603.2437931237755 117.21145726748611 603.2437931237755 147.30160549657575
z" fill="none" stroke="none"></path>
<circle cx="0" cy="0" r="5.025415150448098" fill="#d9dbee">
  <animateMotion begin="-7.3676169058723895s" dur="11.38s" repeatCount="indefinite">
    <mpath xlink:href="#path15"></mpath>
  </animateMotion>
</circle><path id="path16" d="M 729.6388657299293 440.86678662614025
c 0 23.671706728965034 -5.792013348576551 6.799320017894212 -12.591333366470764 6.799320017894212
S 704.4561989969878 464.5384933551053 704.4561989969878 440.86678662614025
s 5.792013348576551 -6.799320017894212 12.591333366470764 -6.799320017894212
S 729.6388657299293 417.1950798971752 729.6388657299293 440.86678662614025
z" fill="none" stroke="none"></path>
<circle cx="0" cy="0" r="4.27393353555108" fill="#3b4368">
  <animateMotion begin="-2.8254336860388647s" dur="11.38s" repeatCount="indefinite">
    <mpath xlink:href="#path16"></mpath>
  </animateMotion>
</circle><path id="path17" d="M 924.539101581699 301.61307938948954
c 0 20.651913928527993 -5.05312787612919 5.9319327241516575 -10.985060600280846 5.9319327241516575
S 902.5689803811374 322.26499331801756 902.5689803811374 301.61307938948954
s 5.05312787612919 -5.9319327241516575 10.985060600280846 -5.9319327241516575
S 924.539101581699 280.9611654609615 924.539101581699 301.61307938948954
z" fill="none" stroke="none"></path>
<circle cx="0" cy="0" r="6.229711193861151" fill="#d9dbee">
  <animateMotion begin="-4.809069943967257s" dur="11.38s" repeatCount="indefinite">
    <mpath xlink:href="#path17"></mpath>
  </animateMotion>
</circle><path id="path18" d="M 174.36504784650975 841.5010422954543
c 0 19.059373802704098 -4.663463802789299 5.4745009858830915 -10.137964788672392 5.4745009858830915
S 154.08911826916494 860.5604160981584 154.08911826916494 841.5010422954543
s 4.663463802789299 -5.4745009858830915 10.137964788672392 -5.4745009858830915
S 174.36504784650975 822.4416684927503 174.36504784650975 841.5010422954543
z" fill="none" stroke="none"></path>
<circle cx="0" cy="0" r="5.567137094729031" fill="#d9dbee">
  <animateMotion begin="-6.450104599857421s" dur="11.38s" repeatCount="indefinite">
    <mpath xlink:href="#path18"></mpath>
  </animateMotion>
</circle><path id="path19" d="M 1683.5456511742236 429.6765712478532
c 0 29.218803084894212 -7.14928160587837 8.392634928639827 -15.541916534518197 8.392634928639827
S 1652.4618181051874 458.8953743327474 1652.4618181051874 429.6765712478532
s 7.14928160587837 -8.392634928639827 15.541916534518197 -8.392634928639827
S 1683.5456511742236 400.457768162959 1683.5456511742236 429.6765712478532
z" fill="none" stroke="none"></path>
<circle cx="0" cy="0" r="6.163999251348902" fill="#d9dbee">
  <animateMotion begin="-9.851376169272203s" dur="11.38s" repeatCount="indefinite">
    <mpath xlink:href="#path19"></mpath>
  </animateMotion>
</circle><path id="path20" d="M 459.37957979367104 730.5457667047901
c 0 33.373511675721765 -8.165859239804261 9.5860086728137 -17.75186791261796 9.5860086728137
S 423.8758439684351 763.9192783805119 423.8758439684351 730.5457667047901
s 8.165859239804261 -9.5860086728137 17.75186791261796 -9.5860086728137
S 459.37957979367104 697.1722550290684 459.37957979367104 730.5457667047901
z" fill="none" stroke="none"></path>
<circle cx="0" cy="0" r="7.026984970112407" fill="#d9dbee">
  <animateMotion begin="-4.541013304833425s" dur="11.38s" repeatCount="indefinite">
    <mpath xlink:href="#path20"></mpath>
  </animateMotion>
</circle><path id="path21" d="M 490.18461990975004 498.22806548254687
c 0 35.29706805143183 -8.636516650882255 10.138519546687865 -18.77503619757012 10.138519546687865
S 452.63454751460984 533.5251335339786 452.63454751460984 498.22806548254687
s 8.636516650882255 -10.138519546687865 18.77503619757012 -10.138519546687865
S 490.18461990975004 462.93099743111503 490.18461990975004 498.22806548254687
z" fill="none" stroke="none"></path>
<circle cx="0" cy="0" r="5.222939591873406" fill="#689cc5">
  <animateMotion begin="-3.296669162970512s" dur="11.38s" repeatCount="indefinite">
    <mpath xlink:href="#path21"></mpath>
  </animateMotion>
</circle><path id="path22" d="M 1321.040438106338 132.23239540165414
c 0 25.85680183023346 -6.326664277610314 7.426953717194718 -13.753617994805031 7.426953717194718
S 1293.533202116728 158.0891972318876 1293.533202116728 132.23239540165414
s 6.326664277610314 -7.426953717194718 13.753617994805031 -7.426953717194718
S 1321.040438106338 106.37559357142068 1321.040438106338 132.23239540165414
z" fill="none" stroke="none"></path>
<circle cx="0" cy="0" r="7.079011643966798" fill="#b3b7e2">
  <animateMotion begin="-5.431952503811442s" dur="11.38s" repeatCount="indefinite">
    <mpath xlink:href="#path22"></mpath>
  </animateMotion>
</circle><path id="path23" d="M 1182.3776812605863 448.09556918126907
c 0 18.994660413157295 -4.647629675559763 5.455913097396244 -10.103542772956008 5.455913097396244
S 1162.1705957146744 467.0902295944264 1162.1705957146744 448.09556918126907
s 4.647629675559763 -5.455913097396244 10.103542772956008 -5.455913097396244
S 1182.3776812605863 429.10090876811176 1182.3776812605863 448.09556918126907
z" fill="none" stroke="none"></path>
<circle cx="0" cy="0" r="5.116682893025631" fill="#93dbe9">
  <animateMotion begin="-11.279981652186255s" dur="11.38s" repeatCount="indefinite">
    <mpath xlink:href="#path23"></mpath>
  </animateMotion>
</circle><path id="path24" d="M 778.9874677892466 191.28415133741123
c 0 18.935867965112497 -4.6332442893360355 5.4390259048727385 -10.072270194208775 5.4390259048727385
S 758.8429274008291 210.22001930252372 758.8429274008291 191.28415133741123
s 4.6332442893360355 -5.4390259048727385 10.072270194208775 -5.4390259048727385
S 778.9874677892466 172.34828337229874 778.9874677892466 191.28415133741123
z" fill="none" stroke="none"></path>
<circle cx="0" cy="0" r="7.759958245431465" fill="#191d3a">
  <animateMotion begin="-2.387047124113431s" dur="11.38s" repeatCount="indefinite">
    <mpath xlink:href="#path24"></mpath>
  </animateMotion>
</circle><path id="path25" d="M 500.25516484073415 106.66296117409068
c 0 32.03597259832098 -7.838589040014708 9.201821916539005 -17.040410956553714 9.201821916539005
S 466.1743429276267 138.69893377241166 466.1743429276267 106.66296117409068
s 7.838589040014708 -9.201821916539005 17.040410956553714 -9.201821916539005
S 500.25516484073415 74.6269885757697 500.25516484073415 106.66296117409068
z" fill="none" stroke="none"></path>
<circle cx="0" cy="0" r="7.843946162074117" fill="#191d3a">
  <animateMotion begin="-10.384104696260168s" dur="11.38s" repeatCount="indefinite">
    <mpath xlink:href="#path25"></mpath>
  </animateMotion>
</circle><path id="path26" d="M 18.865155158673225 363.80313101930216
c 0 20.115166594227883 -4.921796081566397 5.777760617490988 -10.699556699057384 5.777760617490988
S -2.5339582394415405 383.91829761353006 -2.5339582394415405 363.80313101930216
s 4.921796081566397 -5.777760617490988 10.699556699057384 -5.777760617490988
S 18.865155158673225 343.68796442507426 18.865155158673225 363.80313101930216
z" fill="none" stroke="none"></path>
<circle cx="0" cy="0" r="5.155767627179877" fill="#3b4368">
  <animateMotion begin="-2.1825691501194524s" dur="11.38s" repeatCount="indefinite">
    <mpath xlink:href="#path26"></mpath>
  </animateMotion>
</circle><path id="path27" d="M 1243.3572735145572 616.6145673715354
c 0 35.277532754277956 -8.63173673774886 10.132908344313881 -18.764645082062742 10.132908344313881
S 1205.8279833504316 651.8921001258134 1205.8279833504316 616.6145673715354
s 8.63173673774886 -10.132908344313881 18.764645082062742 -10.132908344313881
S 1243.3572735145572 581.3370346172574 1243.3572735145572 616.6145673715354
z" fill="none" stroke="none"></path>
<circle cx="0" cy="0" r="7.574093529153122" fill="#689cc5">
  <animateMotion begin="-10.128214699482381s" dur="11.38s" repeatCount="indefinite">
    <mpath xlink:href="#path27"></mpath>
  </animateMotion>
</circle><path id="path28" d="M 651.9582074991606 827.2997515811888
c 0 36.350034773868465 -8.894157444669942 10.440967435047325 -19.335124879717267 10.440967435047325
S 613.2879577397262 863.6497863550574 613.2879577397262 827.2997515811888
s 8.894157444669942 -10.440967435047325 19.335124879717267 -10.440967435047325
S 651.9582074991606 790.9497168073203 651.9582074991606 827.2997515811888
z" fill="none" stroke="none"></path>
<circle cx="0" cy="0" r="5.826083049916395" fill="#5e6fa3">
  <animateMotion begin="-9.570216633102545s" dur="11.38s" repeatCount="indefinite">
    <mpath xlink:href="#path28"></mpath>
  </animateMotion>
</circle><path id="path29" d="M 453.7113713740741 410.91589349188445
c 0 35.8800294844972 -8.77915615046208 10.305965915759835 -19.085122066221917 10.305965915759835
S 415.54112724163025 446.79592297638163 415.54112724163025 410.91589349188445
s 8.77915615046208 -10.305965915759835 19.085122066221917 -10.305965915759835
S 453.7113713740741 375.03586400738726 453.7113713740741 410.91589349188445
z" fill="none" stroke="none"></path>
<circle cx="0" cy="0" r="7.05535186801588" fill="#689cc5">
  <animateMotion begin="-1.384502070059521s" dur="11.38s" repeatCount="indefinite">
    <mpath xlink:href="#path29"></mpath>
  </animateMotion>
</circle></g>
</svg>