<svg xmlns="http://www.w3.org/2000/svg" xmlns:xlink="http://www.w3.org/1999/xlink" style="margin:auto;background:#191769;display:block;z-index:1;position:relative" width="1141" height="862" preserveAspectRatio="xMidYMid" viewBox="0 0 1141 862">
<g transform="translate(570.5,431) scale(1,1) translate(-570.5,-431)"><defs>
  <path id="path-7qoefywhkf-1" d="M-35 -35L35 -35L35 35L-35 35Z" fill="none" stroke="inherit" stroke-width="4.333333333333334" transform="scale(0.3)"></path>
  <path id="path-7qoefywhkf-2" d="M0 -37A37 37 0 0 1 0 37A37 37 0 0 1 0 -37" fill="none" stroke="inherit" stroke-width="4.333333333333334" transform="scale(0.3)"></path>
  <path id="path-7qoefywhkf-3" d="M0 -34.641L40 34.641L-40 34.641Z" fill="none" stroke="inherit" stroke-width="4.333333333333334" transform="scale(0.3)"></path>
</defs><path id="path0" d="M 110.01257783435405 722.84761763316
c 0 46.18871497298178 -11.301494089133838 13.266971322026683 -24.56846541116052 13.266971322026683
S 60.87564701203301 769.0363326061417 60.87564701203301 722.84761763316
s 11.301494089133838 -13.266971322026683 24.56846541116052 -13.266971322026683
S 110.01257783435405 676.6589026601782 110.01257783435405 722.84761763316
z" fill="none" stroke="none"></path>
<use xlink:href="#path-7qoefywhkf-1" x="0" y="0" stroke="#a976c3">
  <animateMotion begin="-1.4966297489358709s" dur="19.252767163149517s" keyPoints="0;1" keyTimes="0;1" repeatCount="indefinite" calcMode="linear">
    <mpath xlink:href="#path0"></mpath>
  </animateMotion>
</use><path id="path1" d="M 140.29395319478053 516.0985955264133
c 0 52.5337807442 -12.85401018209149 15.089490213759575 -27.943500395851064 15.089490213759575
S 84.4069524030784 568.6323762706133 84.4069524030784 516.0985955264133
s 12.85401018209149 -15.089490213759575 27.943500395851064 -15.089490213759575
S 140.29395319478053 463.5648147822133 140.29395319478053 516.0985955264133
z" fill="none" stroke="none"></path>
<use xlink:href="#path-7qoefywhkf-2" x="0" y="0" stroke="#a976c3">
  <animateMotion begin="-3.545359818959227s" dur="15.320509541778659s" keyPoints="0;1" keyTimes="0;1" repeatCount="indefinite" calcMode="linear">
    <mpath xlink:href="#path1"></mpath>
  </animateMotion>
</use><path id="path2" d="M 206.43049508504467 413.0623206529062
c 0 20.29012583690073 -4.964605257965072 5.828014868045956 -10.792620126011027 5.828014868045956
S 184.8452548330226 433.35244648980694 184.8452548330226 413.0623206529062
s 4.964605257965072 -5.828014868045956 10.792620126011027 -5.828014868045956
S 206.43049508504467 392.7721948160054 206.43049508504467 413.0623206529062
z" fill="none" stroke="none"></path>
<use xlink:href="#path-7qoefywhkf-2" x="0" y="0" stroke="#a976c3">
  <animateMotion begin="-1.9942713043409637s" dur="16.50744128622745s" keyPoints="1;0" keyTimes="0;1" repeatCount="indefinite" calcMode="linear">
    <mpath xlink:href="#path2"></mpath>
  </animateMotion>
</use><path id="path3" d="M 230.85000815129862 75.98986590667144
c 0 35.13822525574163 -8.59765086044742 10.09289448835132 -18.69054534879874 10.09289448835132
S 193.46891745370115 111.12809116241307 193.46891745370115 75.98986590667144
s 8.59765086044742 -10.09289448835132 18.69054534879874 -10.09289448835132
S 230.85000815129862 40.85164065092981 230.85000815129862 75.98986590667144
z" fill="none" stroke="none"></path>
<use xlink:href="#path-7qoefywhkf-3" x="0" y="0" stroke="#a976c3">
  <animateMotion begin="-0.1707050187801616s" dur="25.219051011231375s" keyPoints="0;1" keyTimes="0;1" repeatCount="indefinite" calcMode="linear">
    <mpath xlink:href="#path3"></mpath>
  </animateMotion>
</use><path id="path4" d="M 334.9528128905676 213.6008614179774
c 0 32.656664839534926 -7.990460545843651 9.380105858164288 -17.37056640400794 9.380105858164288
S 300.2116800825517 246.25752625751232 300.2116800825517 213.6008614179774
s 7.990460545843651 -9.380105858164288 17.37056640400794 -9.380105858164288
S 334.9528128905676 180.94419657844247 334.9528128905676 213.6008614179774
z" fill="none" stroke="none"></path>
<use xlink:href="#path-7qoefywhkf-2" x="0" y="0" stroke="#5f2a62">
  <animateMotion begin="-5.802351482253035s" dur="27.354475423052385s" keyPoints="1;0" keyTimes="0;1" repeatCount="indefinite" calcMode="linear">
    <mpath xlink:href="#path4"></mpath>
  </animateMotion>
</use><path id="path5" d="M 360.3769681706917 376.1502075987794
c 0 31.743028007952365 -7.766911108328769 9.11767825760334 -16.884589365932108 9.11767825760334
S 326.60778943882747 407.89323560673176 326.60778943882747 376.1502075987794
s 7.766911108328769 -9.11767825760334 16.884589365932108 -9.11767825760334
S 360.3769681706917 344.407179590827 360.3769681706917 376.1502075987794
z" fill="none" stroke="none"></path>
<use xlink:href="#path-7qoefywhkf-1" x="0" y="0" stroke="#a0de59">
  <animateMotion begin="-2.105232568418171s" dur="23.26973995434265s" keyPoints="1;0" keyTimes="0;1" repeatCount="indefinite" calcMode="linear">
    <mpath xlink:href="#path5"></mpath>
  </animateMotion>
</use><path id="path6" d="M 443.0074329706594 373.44882745544925
c 0 43.112670130589144 -10.548844819186705 12.38342652687135 -22.932271346058055 12.38342652687135
S 397.14289027854335 416.5614975860384 397.14289027854335 373.44882745544925
s 10.548844819186705 -12.38342652687135 22.932271346058055 -12.38342652687135
S 443.0074329706594 330.3361573248601 443.0074329706594 373.44882745544925
z" fill="none" stroke="none"></path>
<use xlink:href="#path-7qoefywhkf-2" x="0" y="0" stroke="#a976c3">
  <animateMotion begin="-6.518352194541978s" dur="22.85034688044315s" keyPoints="0;1" keyTimes="0;1" repeatCount="indefinite" calcMode="linear">
    <mpath xlink:href="#path6"></mpath>
  </animateMotion>
</use><path id="path7" d="M 508.7089503188653 131.61034935958855
c 0 53.942861763344624 -13.198785325073683 15.494226251173457 -28.693011576247137 15.494226251173457
S 451.32292716637096 185.5532111229332 451.32292716637096 131.61034935958855
s 13.198785325073683 -15.494226251173457 28.693011576247137 -15.494226251173457
S 508.7089503188653 77.66748759624393 508.7089503188653 131.61034935958855
z" fill="none" stroke="none"></path>
<use xlink:href="#path-7qoefywhkf-2" x="0" y="0" stroke="#a976c3">
  <animateMotion begin="-2.8075926254980743s" dur="28.42092669195463s" keyPoints="0;1" keyTimes="0;1" repeatCount="indefinite" calcMode="linear">
    <mpath xlink:href="#path7"></mpath>
  </animateMotion>
</use><path id="path8" d="M 528.9283538863737 752.4380846915437
c 0 19.513447721588303 -4.774566995707776 5.604926473222172 -10.379493468929947 5.604926473222172
S 508.1693669485138 771.951532413132 508.1693669485138 752.4380846915437
s 4.774566995707776 -5.604926473222172 10.379493468929947 -5.604926473222172
S 528.9283538863737 732.9246369699555 528.9283538863737 752.4380846915437
z" fill="none" stroke="none"></path>
<use xlink:href="#path-7qoefywhkf-3" x="0" y="0" stroke="#5f2a62">
  <animateMotion begin="-6.378670879862771s" dur="20.03849294658314s" keyPoints="0;1" keyTimes="0;1" repeatCount="indefinite" calcMode="linear">
    <mpath xlink:href="#path8"></mpath>
  </animateMotion>
</use><path id="path9" d="M 647.1970227891288 499.62092537660635
c 0 36.590625660657416 -8.953025427607665 10.510073328061173 -19.463098755668838 10.510073328061173
S 608.2708252777911 536.2115510372638 608.2708252777911 499.62092537660635
s 8.953025427607665 -10.510073328061173 19.463098755668838 -10.510073328061173
S 647.1970227891288 463.03029971594896 647.1970227891288 499.62092537660635
z" fill="none" stroke="none"></path>
<use xlink:href="#path-7qoefywhkf-1" x="0" y="0" stroke="#a0de59">
  <animateMotion begin="-6.349381377394101s" dur="23.951334505870136s" keyPoints="0;1" keyTimes="0;1" repeatCount="indefinite" calcMode="linear">
    <mpath xlink:href="#path9"></mpath>
  </animateMotion>
</use><path id="path10" d="M 687.9612713597425 141.1095926454025
c 0 50.30548581486739 -12.308789082361168 14.44944805320659 -26.758237135567757 14.44944805320659
S 634.4447970886068 191.41507846026988 634.4447970886068 141.1095926454025
s 12.308789082361168 -14.44944805320659 26.758237135567757 -14.44944805320659
S 687.9612713597425 90.80410683053512 687.9612713597425 141.1095926454025
z" fill="none" stroke="none"></path>
<use xlink:href="#path-7qoefywhkf-1" x="0" y="0" stroke="#a976c3">
  <animateMotion begin="-3.27630128489275s" dur="28.038034947835925s" keyPoints="1;0" keyTimes="0;1" repeatCount="indefinite" calcMode="linear">
    <mpath xlink:href="#path10"></mpath>
  </animateMotion>
</use><path id="path11" d="M 758.3007777116941 130.16849272730317
c 0 35.533130814285144 -8.694276688601683 10.206324808358499 -18.90060149696018 10.206324808358499
S 720.4995747177736 165.70162354158833 720.4995747177736 130.16849272730317
s 8.694276688601683 -10.206324808358499 18.90060149696018 -10.206324808358499
S 758.3007777116941 94.63536191301803 758.3007777116941 130.16849272730317
z" fill="none" stroke="none"></path>
<use xlink:href="#path-7qoefywhkf-3" x="0" y="0" stroke="#a0de59">
  <animateMotion begin="-6.9300633835701735s" dur="28.543383955010516s" keyPoints="0;1" keyTimes="0;1" repeatCount="indefinite" calcMode="linear">
    <mpath xlink:href="#path11"></mpath>
  </animateMotion>
</use><path id="path12" d="M 827.2489869772822 268.6361019590625
c 0 48.726458708044824 -11.922431386010967 13.995897714012877 -25.918329100023843 13.995897714012877
S 775.4123287772346 317.36256066710735 775.4123287772346 268.6361019590625
s 11.922431386010967 -13.995897714012877 25.918329100023843 -13.995897714012877
S 827.2489869772822 219.90964325101768 827.2489869772822 268.6361019590625
z" fill="none" stroke="none"></path>
<use xlink:href="#path-7qoefywhkf-1" x="0" y="0" stroke="#a0de59">
  <animateMotion begin="-5.285310814336391s" dur="15.598113565766383s" keyPoints="1;0" keyTimes="0;1" repeatCount="indefinite" calcMode="linear">
    <mpath xlink:href="#path12"></mpath>
  </animateMotion>
</use><path id="path13" d="M 875.7911640131597 373.5281164391557
c 0 37.21400287289744 -9.10555389443235 10.689128484768412 -19.794682379200765 10.689128484768412
S 836.2017992547583 410.74211931205315 836.2017992547583 373.5281164391557
s 9.10555389443235 -10.689128484768412 19.794682379200765 -10.689128484768412
S 875.7911640131597 336.3141135662583 875.7911640131597 373.5281164391557
z" fill="none" stroke="none"></path>
<use xlink:href="#path-7qoefywhkf-3" x="0" y="0" stroke="#a976c3">
  <animateMotion begin="-0.6387649999018803s" dur="16.84908630805428s" keyPoints="1;0" keyTimes="0;1" repeatCount="indefinite" calcMode="linear">
    <mpath xlink:href="#path13"></mpath>
  </animateMotion>
</use><path id="path14" d="M 909.5346255252217 284.1300814043365
c 0 43.32920046453374 -10.601825645577403 12.445621410025648 -23.04744705560305 12.445621410025648
S 863.4397314140157 327.4592818688703 863.4397314140157 284.1300814043365
s 10.601825645577403 -12.445621410025648 23.04744705560305 -12.445621410025648
S 909.5346255252217 240.80088093980277 909.5346255252217 284.1300814043365
z" fill="none" stroke="none"></path>
<use xlink:href="#path-7qoefywhkf-1" x="0" y="0" stroke="#a976c3">
  <animateMotion begin="-1.3117969475297055s" dur="17.680564339414435s" keyPoints="0;1" keyTimes="0;1" repeatCount="indefinite" calcMode="linear">
    <mpath xlink:href="#path14"></mpath>
  </animateMotion>
</use><path id="path15" d="M 1006.6533514866524 586.599473019916
c 0 22.34878541385389 -5.4683198353046745 6.419331980575053 -11.887651815879728 6.419331980575053
S 982.8780478548929 608.9482584337699 982.8780478548929 586.599473019916
s 5.4683198353046745 -6.419331980575053 11.887651815879728 -6.419331980575053
S 1006.6533514866524 564.2506876060621 1006.6533514866524 586.599473019916
z" fill="none" stroke="none"></path>
<use xlink:href="#path-7qoefywhkf-3" x="0" y="0" stroke="#a0de59">
  <animateMotion begin="-0.531254328861861s" dur="28.02168168649318s" keyPoints="1;0" keyTimes="0;1" repeatCount="indefinite" calcMode="linear">
    <mpath xlink:href="#path15"></mpath>
  </animateMotion>
</use><path id="path16" d="M 1081.025397829742 432.6198269135929
c 0 56.9672146617261 -13.938786566167023 16.36292336028303 -30.30170992645005 16.36292336028303
S 1020.4219779768418 489.58704157531895 1020.4219779768418 432.6198269135929
s 13.938786566167023 -16.36292336028303 30.30170992645005 -16.36292336028303
S 1081.025397829742 375.6526122518668 1081.025397829742 432.6198269135929
z" fill="none" stroke="none"></path>
<use xlink:href="#path-7qoefywhkf-2" x="0" y="0" stroke="#a976c3">
  <animateMotion begin="-5.694119572344046s" dur="17.904798879489753s" keyPoints="0;1" keyTimes="0;1" repeatCount="indefinite" calcMode="linear">
    <mpath xlink:href="#path16"></mpath>
  </animateMotion>
</use><path id="path17" d="M 1124.8184771552467 656.2891188662858
c 0 29.842137624032244 -7.301799631412144 8.571677828179475 -15.87347745959162 8.571677828179475
S 1093.0715222360634 686.131256490318 1093.0715222360634 656.2891188662858
s 7.301799631412144 -8.571677828179475 15.87347745959162 -8.571677828179475
S 1124.8184771552467 626.4469812422535 1124.8184771552467 656.2891188662858
z" fill="none" stroke="none"></path>
<use xlink:href="#path-7qoefywhkf-1" x="0" y="0" stroke="#a0de59">
  <animateMotion begin="-7.102861539149923s" dur="18.83774718437983s" keyPoints="1;0" keyTimes="0;1" repeatCount="indefinite" calcMode="linear">
    <mpath xlink:href="#path17"></mpath>
  </animateMotion>
</use></g>
</svg>