<?xml version="1.0" encoding="UTF-8"?>
<svg version="1.1" viewBox="0 0 600 508" xmlns="http://www.w3.org/2000/svg" xmlns:cc="http://creativecommons.org/ns#" xmlns:dc="http://purl.org/dc/elements/1.1/" xmlns:rdf="http://www.w3.org/1999/02/22-rdf-syntax-ns#">
<metadata>
<rdf:RDF>
<cc:Work rdf:about="">
<dc:format>image/svg+xml</dc:format>
<dc:type rdf:resource="http://purl.org/dc/dcmitype/StillImage"/>
<dc:title/>
</cc:Work>
</rdf:RDF>
</metadata>
<g transform="translate(0 -544.36)">
<g transform="translate(-40.591 310.32)">
<path d="m315.95 275.15s-260.16 427.2-260.16 427.2c-4.9921 8.16-4.9921 18.24 0 26.4 4.896 8.064 14.112 13.152 24.096 13.152h520.32c9.888 0 19.104-5.088 24.096-13.152 4.896-8.16 4.896-18.24 0-26.4l-260.16-427.2c-4.992-8.16-14.208-13.248-24.096-13.248s-19.104 5.0881-24.096 13.248z" fill-opacity=".17857"/>
<path d="m315.53 247.99l-271.03 445.06c-5.2006 8.501-5.2006 19.002 0 27.503 5.1007 8.401 14.702 13.702 25.103 13.702h542.07c10.301 0 19.902-5.3006 25.103-13.702 5.1006-8.501 5.1006-19.002 0-27.503l-271.03-445.06c-5.2017-8.5011-14.803-13.802-25.104-13.802s-19.902 5.3007-25.103 13.802z" fill="#8c0000"/>
<path d="m326.83 375.81-163.72 268.73c-2.8003 4.7006-2.8003 10.501 0 15.102 2.8003 4.7006 8.101 7.6009 13.802 7.6009h327.34c5.6996 0 11.001-2.9004 13.802-7.6009s2.8003-10.401 0-15.102l-163.62-268.73c-2.8003-4.7006-8.101-7.6009-13.803-7.6009-5.6996 0-11.001 2.9004-13.802 7.6009z" fill="#fff"/>
<path d="m332 657.71c-9.3803-4.4922-16.524-15.295-16.524-24.986 0-18.045 18.857-31.639 36.698-26.454 12.036 3.4973 20.216 14.359 20.116 26.708-0.0854 10.491-4.6256 18.22-13.894 23.649-7.0946 4.1568-18.964 4.6433-26.396 1.0835zm2.1315-71.256c-1.172-0.64383-3.9338-2.8878-6.1361-4.985-7.6957-7.33-7.6853-7.2654-12.702-85.689-4.4589-69.715-4.4964-70.798-2.5826-75.806 4.3036-11.266 13.895-16.2 29.864-15.362 10.151 0.5334 17.969 4.0984 23.051 10.512 4.3401 5.4777 5.284 8.575 5.2798 17.326-4e-3 9.5105-6.0788 126.14-6.9425 133.28-1.1304 9.3615-6.5956 16.957-14.607 20.302-4.5766 1.9117-12.13 2.119-15.225 0.41776z"/>
</g>
</g>
</svg>
