<?xml version="1.0" encoding="UTF-8" standalone="no"?>
<svg
   xmlns:dc="http://purl.org/dc/elements/1.1/"
   xmlns:cc="http://creativecommons.org/ns#"
   xmlns:rdf="http://www.w3.org/1999/02/22-rdf-syntax-ns#"
   xmlns:svg="http://www.w3.org/2000/svg"
   xmlns="http://www.w3.org/2000/svg"
   xmlns:sodipodi="http://sodipodi.sourceforge.net/DTD/sodipodi-0.dtd"
   xmlns:inkscape="http://www.inkscape.org/namespaces/inkscape"
   width="47.577mm"
   height="47.577mm"
   version="1.1"
   viewBox="0 0 168.58103 168.58001"
   id="svg2"
   inkscape:version="0.91 r13725"
   sodipodi:docname="pdf-download.svg"
   inkscape:export-filename="download-pdf.png"
   inkscape:export-xdpi="90"
   inkscape:export-ydpi="90">
  <defs
     id="defs18" />
  <sodipodi:namedview
     pagecolor="#ffffff"
     bordercolor="#666666"
     borderopacity="1"
     objecttolerance="10"
     gridtolerance="10"
     guidetolerance="10"
     inkscape:pageopacity="0"
     inkscape:pageshadow="2"
     inkscape:window-width="790"
     inkscape:window-height="480"
     id="namedview16"
     showgrid="false"
     inkscape:zoom="1.3999295"
     inkscape:cx="137.86409"
     inkscape:cy="86.432925"
     inkscape:window-x="0"
     inkscape:window-y="0"
     inkscape:window-maximized="0"
     inkscape:current-layer="svg2" />
  <metadata
     id="metadata4">
    <rdf:RDF>
      <cc:Work
         rdf:about="">
        <dc:format>image/svg+xml</dc:format>
        <dc:type
           rdf:resource="http://purl.org/dc/dcmitype/StillImage" />
        <dc:title></dc:title>
      </cc:Work>
    </rdf:RDF>
  </metadata>
  <path
     style="fill:#c4c9ce"
     inkscape:connector-curvature="0"
     id="path10"
     d="m 141.831,167.479 c -0.69764,-0.29495 -1.4591,-0.92653 -2.3114,-1.9171 -0.35828,-0.41642 -0.69893,-0.78647 -0.75698,-0.82235 -0.0581,-0.0359 -0.44498,-0.45378 -0.85986,-0.92868 -0.66418,-0.7603 -1.3752,-1.5254 -4.5721,-4.9199 -0.40932,-0.43462 -1.14,-1.2406 -1.6237,-1.7912 -0.48371,-0.55052 -1.6273,-1.785 -2.5414,-2.7433 -2.3763,-2.4912 -3.2295,-3.4073 -3.5542,-3.8159 -0.51337,-0.64599 -1.9578,-2.179 -2.1071,-2.2363 -0.0803,-0.0308 -20.66,-0.0578 -45.732,-0.06 -25.072,-0.002 -45.775,-0.0447 -46.007,-0.0945 -0.5741,-0.12326 -2.1879,-0.53557 -2.318,-0.5922 -0.05795,-0.0252 -0.31872,-0.21002 -0.57949,-0.41064 -0.26077,-0.20062 -0.66378,-0.45443 -0.89558,-0.56403 -0.58439,-0.2763 -0.92866,-0.64742 -1.7056,-1.8386 -0.43624,-0.66882 -0.70473,-1.2035 -0.7672,-1.5278 -0.05285,-0.27438 -0.17002,-0.70634 -0.26037,-0.95991 -0.14764,-0.41433 -0.16428,-4.2963 -0.16428,-38.32 l 0,-37.859 -0.23417,-0.16402 c -0.20789,-0.14561 -1.3578,-0.1643 -10.247,-0.16653 -5.8702,-0.0015 -10.165,-0.04328 -10.381,-0.10104 -1.2355,-0.33011 -1.5548,-0.46167 -2.1478,-0.88481 -0.68231,-0.48689 -1.3843,-1.304 -1.708,-1.9881 -0.10282,-0.21731 -0.22559,-0.39511 -0.2728,-0.39511 -0.12627,0 -0.10979,-31.265 0.01651,-31.343 0.05631,-0.03479 0.1908,-0.26281 0.29888,-0.50669 0.30781,-0.69452 1.4898,-1.8031 2.374,-2.2266 1.4484,-0.69368 1.4969,-0.69644 12.161,-0.69285 5.2585,0.0018 9.6388,0.0025 9.734,0.0016 0.09522,-8.43e-4 0.21375,-0.0846 0.26341,-0.18601 0.04967,-0.10141 0.11671,-4.7835 0.149,-10.405 l 0.0587,-10.22 0.26984,-0.89558 c 0.14841,-0.49257 0.38277,-1.078 0.52078,-1.301 0.44492,-0.71873 1.5107,-1.9023 2.0542,-2.2814 0.29084,-0.20282 0.73446,-0.523 0.98581,-0.71151 0.25134,-0.18851 0.65119,-0.3901 0.88854,-0.44799 0.23735,-0.05789 0.66862,-0.18813 0.95837,-0.28944 0.4986,-0.17432 3.1491,-0.18419 49.483,-0.18419 45.608,0 48.97,0.01205 49.152,0.17618 0.1075,0.0969 0.3193,0.20708 0.47067,0.24484 0.17691,0.04413 4.1574,3.9526 11.141,10.94 9.485,9.4892 10.906,10.951 11.18,11.503 l 0.31358,0.63218 0.003,40.269 0.003,40.269 0.23416,0.16402 c 0.1872,0.13112 0.55791,0.16402 1.8482,0.16402 1.5635,0 1.6347,0.01 2.2728,0.308 0.73319,0.34279 1.8611,1.389 1.8611,1.7262 0,0.11341 0.10668,0.37775 0.23707,0.58742 l 0.23707,0.3812 0.0286,13.717 0.0286,13.717 3.6064,0.035 3.6064,0.035 0.68486,0.33092 c 0.37667,0.182 0.83894,0.48288 1.0273,0.66861 l 0.34243,0.33769 0,1.6927 c 0,1.5264 -0.0227,1.7396 -0.23078,2.1694 -0.37755,0.77991 -1.1344,1.7128 -2.8969,3.5708 -2.3363,2.4629 -2.9118,3.0822 -4.0357,4.3426 -0.54257,0.60847 -1.7024,1.8649 -2.5773,2.7921 -0.87493,0.92719 -1.7854,1.8992 -2.0232,2.1599 -2.1763,2.3861 -5.5127,5.9713 -6.3137,6.7846 -0.12025,0.12209 -0.45142,0.50646 -0.73593,0.85416 -0.54383,0.66461 -3.6706,3.9937 -4.9705,5.2921 -0.44932,0.4488 -0.88198,0.78566 -1.0537,0.82035 -0.1602,0.0324 -0.50464,0.12852 -0.76541,0.21364 -0.26077,0.0851 -0.49784,0.14925 -0.52681,0.14248 -0.029,-0.007 -0.30692,-0.11977 -0.61765,-0.25114 z m -20.929,-21.863 c 0.035,-0.0566 -0.23513,-0.42547 -0.60023,-0.81972 -2.1145,-2.2833 -3.3506,-3.7829 -3.3506,-4.065 0,-0.0796 -0.0953,-0.26597 -0.21189,-0.41412 -0.3456,-0.43936 -0.5275,-1.8307 -0.35325,-2.702 0.0694,-0.34674 1.2002,-1.5877 1.4469,-1.5877 0.07,0 0.31516,-0.10498 0.54472,-0.23328 0.40314,-0.22533 0.53602,-0.23454 3.8944,-0.26962 1.9123,-0.02 3.5132,-0.0722 3.5576,-0.11599 0.0443,-0.0438 0.0795,-6.0744 0.0782,-13.401 -0.002,-12.771 0.006,-13.337 0.19297,-13.69 0.10743,-0.20276 0.23011,-0.51057 0.27261,-0.68403 0.20512,-0.83694 0.98969,-1.7297 1.9797,-2.2526 l 0.63467,-0.33524 10.392,0.002 c 5.7156,10e-4 10.451,-0.0361 10.524,-0.0827 0.10574,-0.0677 0.13235,-7.8719 0.13268,-38.894 0,-21.345 -0.0161,-38.826 -0.0362,-38.846 -0.0201,-0.02012 -3.9914,-0.04824 -8.8251,-0.06248 -7.9262,-0.02335 -8.8247,-0.04301 -9.1573,-0.20032 -0.20282,-0.09594 -0.63524,-0.22356 -0.96093,-0.28361 -0.67937,-0.12526 -1.0196,-0.327 -2.4324,-1.4421 -0.88251,-0.69657 -2.0855,-2.3608 -2.0855,-2.8851 0,-0.11945 -0.10576,-0.4666 -0.23503,-0.77146 l -0.23503,-0.55428 -0.0547,-8.828 c -0.0477,-7.6919 -0.0751,-8.8409 -0.21276,-8.9283 -0.0995,-0.06316 -17.588,-0.09097 -47.255,-0.07514 l -47.097,0.02513 -0.68486,0.34126 c -0.6203,0.30909 -1.573,0.94512 -1.8454,1.232 -0.7365,0.77569 -1.1838,1.7769 -1.3212,2.9574 -0.10672,0.91689 -0.14031,19.422 -0.03575,19.694 0.05801,0.15118 2.0223,0.16709 21.152,0.17125 13.061,0.0028 21.268,0.0431 21.562,0.10578 0.26077,0.05566 0.75803,0.15127 1.105,0.21247 0.34698,0.0612 0.70258,0.17483 0.79022,0.2525 0.08764,0.07767 0.32529,0.21128 0.52811,0.29691 0.74716,0.31546 1.7301,1.4521 2.2594,2.6126 l 0.26789,0.58741 0.0046,14.981 0.0046,14.981 -0.36233,0.83611 c -0.19928,0.45986 -0.50902,0.99263 -0.68831,1.1839 -0.17928,0.1913 -0.32619,0.38214 -0.32646,0.42409 -3.16e-4,0.04195 -0.3383,0.31352 -0.75119,0.60347 -0.51086,0.35876 -1.0291,0.61211 -1.622,0.79296 l -0.87131,0.26577 -21.38,0 c -16.938,0 -21.417,0.02736 -21.559,0.1317 -0.16845,0.12367 -0.17772,2.4312 -0.15184,37.851 l 0.02754,37.72 0.28244,0.76134 c 0.64264,1.7322 1.9332,2.8936 3.7213,3.3489 0.4221,0.10747 9.3471,0.1362 44.905,0.14456 28.778,0.007 44.401,-0.0258 44.442,-0.0925 z m -71.594,-22.97 c -0.20282,-0.11105 -0.42495,-0.20388 -0.49361,-0.20631 -0.1639,-0.006 -0.4944,-0.15981 -1.1395,-0.53098 -0.28975,-0.16671 -0.77736,-0.42273 -1.0836,-0.56894 -0.59407,-0.28362 -0.73124,-0.49012 -0.97889,-1.4737 -0.10877,-0.43192 -0.09379,-0.63143 0.11396,-1.5191 0.13154,-0.56201 0.29986,-1.121 0.37406,-1.2421 0.07419,-0.12114 0.18708,-0.41405 0.25086,-0.65093 0.06379,-0.23687 0.2861,-0.683 0.49404,-0.99142 0.20793,-0.30841 0.5373,-0.87636 0.7319,-1.2621 0.1946,-0.38575 0.58114,-0.97841 0.85896,-1.317 0.27782,-0.33861 0.64194,-0.82656 0.80916,-1.0843 0.41473,-0.63935 3.9002,-4.1216 4.4879,-4.4837 0.26077,-0.1607 0.75861,-0.53922 1.1063,-0.84119 0.3477,-0.30196 0.96304,-0.7749 1.3674,-1.051 0.40436,-0.2761 0.85482,-0.59347 1.0009,-0.70532 0.2494,-0.19088 1.0991,-0.74244 2.6527,-1.722 0.36765,-0.2318 0.78698,-0.46409 0.93186,-0.51621 0.14487,-0.0521 0.37231,-0.17922 0.50542,-0.28246 0.1331,-0.10324 0.3771,-0.21738 0.54223,-0.25364 0.16511,-0.0363 0.38359,-0.15808 0.48551,-0.2707 0.13283,-0.14678 0.32386,-0.20475 0.67471,-0.20475 0.53294,0 0.74228,0.13286 0.74228,0.4711 0,0.24096 -1.482,1.7255 -2.6851,2.6898 -0.81909,0.65647 -4.9499,4.7385 -6.2156,6.1422 -0.45961,0.50972 -0.93266,1.0878 -1.0512,1.2847 -0.11856,0.19684 -0.50004,0.71213 -0.84774,1.1451 -0.80019,0.99642 -1.5281,2.02 -1.7616,2.4769 -0.09962,0.19501 -0.2909,0.5032 -0.42503,0.68485 -0.49148,0.66558 -1.4484,2.8308 -1.4484,3.2773 0,0.22431 0.04876,0.26658 0.30755,0.26658 0.16915,0 0.44177,-0.0684 0.60583,-0.15207 0.16405,-0.0836 0.61381,-0.29626 0.99946,-0.4725 0.38564,-0.17623 0.83606,-0.43021 1.0009,-0.5644 0.16487,-0.13419 0.5374,-0.39341 0.82786,-0.57603 0.68139,-0.42844 4.3279,-4.1524 4.9032,-5.0074 0.24266,-0.36061 0.63129,-0.85326 0.86364,-1.0948 0.23234,-0.24151 0.66532,-0.7961 0.96217,-1.2324 0.29685,-0.4363 0.82421,-1.2032 1.1719,-1.7041 0.3477,-0.50093 0.75071,-1.0958 0.89558,-1.3218 0.14487,-0.2261 0.44839,-0.68405 0.67449,-1.0177 0.2261,-0.33363 0.60988,-0.91478 0.85285,-1.2914 0.24297,-0.37662 0.57953,-0.89681 0.74791,-1.1558 0.16838,-0.25905 0.59062,-0.9575 0.93832,-1.5521 0.3477,-0.59461 1.0649,-1.8051 1.5938,-2.6899 1.3555,-2.2677 2.1206,-3.5879 2.2507,-3.8834 0.0615,-0.13973 0.27391,-0.53853 0.47203,-0.88623 0.19812,-0.34769 0.50656,-0.93819 0.68542,-1.3122 0.17885,-0.37402 0.39043,-0.75333 0.47018,-0.8429 0.13446,-0.15103 1.0077,-1.7829 1.6094,-3.0076 0.14235,-0.28975 0.32677,-0.64534 0.40982,-0.79022 0.08305,-0.14487 0.36512,-0.69012 0.62683,-1.2117 0.48217,-0.96091 0.51146,-1.0175 0.81744,-1.5804 0.16674,-0.30674 0.27641,-0.53498 0.49363,-1.0273 0.05753,-0.13038 0.14956,-0.30818 0.20451,-0.39511 0.05495,-0.0869 0.50777,-0.98777 1.0063,-2.0019 0.49849,-1.0141 0.94849,-1.915 1,-2.0019 0.05151,-0.0869 0.23411,-0.46623 0.40577,-0.8429 0.17166,-0.37667 0.53048,-1.1495 0.79737,-1.7173 0.26689,-0.56785 0.48526,-1.0568 0.48526,-1.0865 0,-0.0751 0.49398,-1.1748 0.72833,-1.6214 0.10643,-0.20282 0.22621,-0.51959 0.26618,-0.70392 0.03997,-0.18433 0.13769,-0.38911 0.21716,-0.45507 0.07947,-0.06596 0.1776,-0.27074 0.21807,-0.45507 0.04046,-0.18433 0.18052,-0.57221 0.31123,-0.86196 0.51001,-1.1305 0.61981,-1.386 0.79237,-1.8438 0.41209,-1.0933 0.54833,-1.439 0.68517,-1.7385 0.18145,-0.3971 0.54922,-1.4476 0.70084,-2.0019 0.06341,-0.2318 0.15975,-0.47854 0.2141,-0.5483 0.11159,-0.14326 0.64762,-1.6139 0.86798,-2.3814 0.07997,-0.27853 0.19505,-0.56624 0.25574,-0.63936 0.06069,-0.07312 0.16547,-0.39002 0.23286,-0.70423 0.06739,-0.31421 0.18271,-0.66657 0.25628,-0.78303 0.07357,-0.11646 0.1677,-0.42511 0.20919,-0.68588 0.04149,-0.26077 0.16071,-0.64246 0.26493,-0.84819 0.10422,-0.20573 0.23702,-0.60874 0.29511,-0.89558 0.05809,-0.28684 0.17841,-0.71118 0.26738,-0.94297 0.222,-0.57836 0.21201,-1.243 -0.03089,-2.0546 -0.31768,-1.0615 -0.53319,-1.8717 -0.74913,-2.8163 -0.10902,-0.4769 -0.24439,-0.95335 -0.30081,-1.0588 -0.05643,-0.10544 -0.13638,-0.49757 -0.17768,-0.8714 -0.0413,-0.37383 -0.16478,-0.96325 -0.27441,-1.3098 -0.10963,-0.34656 -0.24205,-1.0431 -0.29427,-1.5479 -0.05222,-0.50476 -0.14112,-1.004 -0.19756,-1.1095 -0.05643,-0.10545 -0.1584,-0.76018 -0.22659,-1.455 -0.06819,-0.69478 -0.19336,-1.69 -0.27816,-2.2115 -0.37773,-2.3231 -0.38123,-9.7828 -0.0051,-10.853 0.08129,-0.23131 0.18251,-0.75246 0.22495,-1.1581 0.07609,-0.72731 0.22601,-1.1923 0.77756,-2.4118 0.38442,-0.84994 1.0867,-1.4553 1.9639,-1.6927 1.003,-0.2715 3.2518,-0.1927 4.0992,0.14364 0.59127,0.2347 1.435,0.87096 1.435,1.0822 0,0.05479 0.13038,0.36932 0.28974,0.69894 0.26017,0.53812 0.29325,0.73403 0.32399,1.9187 0.0295,1.1387 0.004,1.3954 -0.18438,1.8741 -0.12025,0.30506 -0.21863,0.64037 -0.21863,0.74514 0,0.24731 -0.32597,0.53924 -0.60212,0.53924 -0.24689,0 -0.40726,-0.29712 -0.76775,-1.4224 -0.37638,-1.1749 -1.043,-2.4502 -1.5884,-3.0392 -0.42334,-0.45706 -0.53355,-0.52538 -0.69526,-0.43096 -0.26514,0.15482 -0.73328,1.1385 -0.87421,1.837 -0.06431,0.31872 -0.19502,0.91139 -0.29047,1.317 -0.13293,0.56491 -0.18325,1.4361 -0.21499,3.7221 -0.03538,2.5478 -0.01,3.2339 0.17345,4.6886 0.11819,0.93724 0.24562,2.036 0.28318,2.4416 0.03755,0.40565 0.1581,1.0889 0.26788,1.5183 0.10978,0.4294 0.1996,0.9779 0.1996,1.2189 0,0.50686 0.27982,1.53 0.41843,1.53 0.12751,0 0.18425,-0.23567 0.26636,-1.1063 0.03826,-0.40564 0.1606,-1.0902 0.27188,-1.5213 0.11128,-0.43105 0.20232,-0.97922 0.20232,-1.2182 0,-0.23898 0.08972,-0.78712 0.19938,-1.2182 0.10965,-0.43105 0.23042,-1.163 0.26837,-1.6266 0.0379,-0.4636 0.15862,-1.2459 0.26816,-1.7385 0.10955,-0.49257 0.22801,-1.1583 0.26326,-1.4793 0.10013,-0.9119 0.449,-2.1388 0.64994,-2.2858 0.43735,-0.3198 0.6864,-0.07192 0.94602,0.94158 0.17548,0.68502 0.19671,1.2002 0.1945,4.72 -0.002,3.0227 -0.0451,4.3348 -0.18396,5.5842 -0.0998,0.89822 -0.22935,2.4808 -0.28788,3.5168 -0.0585,1.036 -0.17331,2.1502 -0.25508,2.476 -0.0818,0.32578 -0.18026,0.99534 -0.21886,1.4879 -0.0386,0.49256 -0.13795,1.1654 -0.22077,1.4953 -0.13987,0.557 -0.13479,0.65075 0.0713,1.317 0.12202,0.39454 0.30761,0.907 0.41241,1.1388 0.1048,0.2318 0.22523,0.5874 0.26761,0.79022 0.0424,0.20282 0.16556,0.53401 0.27373,0.73598 0.10818,0.20196 0.19668,0.4094 0.19668,0.46096 0,0.1364 0.42572,1.1326 1.2446,2.9122 0.11999,0.26077 0.2911,0.64008 0.38025,0.8429 0.0892,0.20282 0.20301,0.43989 0.25302,0.52681 0.094,0.16345 0.4104,0.83188 0.69812,1.4751 0.0907,0.20282 0.27726,0.55842 0.41452,0.79022 0.13726,0.2318 0.49714,0.89558 0.79972,1.4751 0.30258,0.57952 0.67592,1.2174 0.82964,1.4177 0.15372,0.20022 0.39803,0.56414 0.5429,0.80871 0.61939,1.0457 0.92199,1.5025 1.4461,2.1834 0.30569,0.39715 0.55581,0.75738 0.55581,0.80051 0,0.04314 0.38287,0.52422 0.85083,1.0691 0.46795,0.54485 1.0168,1.238 1.2196,1.5403 0.40438,0.60274 1.8913,2.0544 2.4338,2.3762 0.18833,0.1117 0.34243,0.23608 0.34243,0.2764 0,0.0403 0.24794,0.26085 0.55098,0.49007 0.30304,0.22921 0.71791,0.57512 0.92192,0.76868 0.20402,0.19356 0.67913,0.56144 1.0558,0.81752 0.37667,0.25607 0.92192,0.63079 1.2117,0.83271 2.7799,1.9372 4.8127,3.1606 5.3735,3.2341 0.1159,0.0152 0.61374,-0.032 1.1063,-0.10476 0.49257,-0.0728 1.6305,-0.17813 2.5287,-0.23407 0.89821,-0.0559 2.1547,-0.1503 2.7921,-0.2097 1.5188,-0.14154 7.7617,-0.15096 8.3763,-0.0126 0.26077,0.0587 1.209,0.15663 2.1072,0.21767 0.89821,0.061 1.8796,0.17738 2.1808,0.25853 0.30122,0.0812 0.84167,0.18168 1.201,0.22339 0.35932,0.0417 0.84777,0.16413 1.0854,0.27207 0.23768,0.10794 0.55448,0.19729 0.70402,0.19856 0.14954,0.001 0.50514,0.12065 0.79022,0.26528 0.28508,0.14463 0.56645,0.26316 0.62525,0.26341 0.0588,2.1e-4 0.27217,0.0886 0.47413,0.19642 0.20197,0.10778 0.48575,0.23282 0.63062,0.27785 0.31739,0.0987 1.2876,0.89349 1.8008,1.4754 0.20447,0.2318 0.51053,0.70095 0.68014,1.0426 0.26031,0.52428 0.3081,0.74602 0.30656,1.4224 -0.002,0.68613 -0.0468,0.88457 -0.31471,1.3808 -0.42046,0.77876 -0.64448,0.80516 -1.2643,0.14902 -0.25906,-0.27425 -0.471,-0.53123 -0.471,-0.57107 0,-0.1767 -0.78414,-0.85462 -1.2719,-1.0996 -0.90454,-0.45432 -2.1003,-0.90169 -2.41,-0.90169 -0.16192,0 -0.57502,-0.0897 -0.91801,-0.19922 -0.343,-0.10958 -1.0959,-0.23301 -1.6732,-0.2743 -0.57726,-0.0413 -1.3578,-0.14547 -1.7344,-0.2315 -0.83188,-0.19001 -10.243,-0.3383 -10.062,-0.15855 0.16517,0.16379 0.92936,0.54748 1.0904,0.54748 0.0799,0 0.31767,0.0882 0.52837,0.196 0.60321,0.30858 1.4945,0.6532 2.0689,0.7999 0.28975,0.074 0.66906,0.2118 0.8429,0.30622 0.17385,0.0944 0.41092,0.17299 0.52682,0.17462 0.1159,0.002 0.41834,0.0972 0.67208,0.2123 0.25376,0.11513 0.65528,0.24034 0.8923,0.27824 0.237,0.0379 0.57464,0.15236 0.75029,0.25435 0.17566,0.102 0.55646,0.21865 0.8462,0.25923 0.28975,0.0406 0.69276,0.14266 0.89558,0.22684 0.20283,0.0842 0.72437,0.21447 1.159,0.28954 0.43462,0.0751 1.0747,0.20846 1.4224,0.29646 0.3477,0.088 1.3908,0.21447 2.318,0.28105 1.4195,0.10194 1.9022,0.0951 3.0555,-0.0434 1.6087,-0.19314 1.8808,-0.15794 2.0564,0.26605 0.21416,0.51704 0.0498,0.98791 -0.55978,1.6033 -0.62661,0.6326 -0.93888,0.80288 -2.1616,1.1787 -0.8296,0.25499 -0.99898,0.26895 -3.2136,0.26499 -1.5321,-0.003 -2.592,-0.0539 -3.0754,-0.14837 -0.40565,-0.0793 -1.0694,-0.19996 -1.4751,-0.26812 -0.40564,-0.0682 -1.0457,-0.19604 -1.4224,-0.28417 -0.37667,-0.0881 -1.0168,-0.21712 -1.4224,-0.28662 -0.40564,-0.0695 -0.84404,-0.18463 -0.97423,-0.25582 -0.13018,-0.0712 -0.49795,-0.17774 -0.81728,-0.23677 -0.31932,-0.059 -0.78176,-0.19865 -1.0276,-0.31027 -0.24589,-0.11161 -0.56561,-0.20427 -0.71048,-0.2059 -0.14487,-0.002 -0.40565,-0.0791 -0.57949,-0.17218 -0.17385,-0.0931 -0.60034,-0.23718 -0.94775,-0.32024 -0.3474,-0.0831 -0.7274,-0.21376 -0.84444,-0.29045 -0.11704,-0.0767 -0.37409,-0.17485 -0.57124,-0.21815 -0.19715,-0.0433 -0.50464,-0.16787 -0.68331,-0.27683 -0.17867,-0.10896 -0.39598,-0.19871 -0.48291,-0.19946 -0.0869,-7.4e-4 -0.39511,-0.11797 -0.68485,-0.2605 -0.28975,-0.14254 -0.58902,-0.26063 -0.66504,-0.26245 -0.14628,-0.003 -1.0871,-0.40705 -1.7056,-0.73162 -0.20282,-0.10643 -0.51959,-0.22621 -0.70392,-0.26618 -0.18433,-0.04 -0.38963,-0.13831 -0.45622,-0.21854 -0.0666,-0.0802 -0.29507,-0.2019 -0.50775,-0.27037 -0.21267,-0.0685 -0.44224,-0.16844 -0.51013,-0.22216 -0.0679,-0.0537 -0.51832,-0.29016 -1.001,-0.5254 l -0.87749,-0.42772 -1.7658,0.12248 c -0.97117,0.0674 -2.1802,0.21412 -2.6867,0.32612 -0.50653,0.11201 -1.2529,0.20814 -1.6585,0.21362 -0.72993,0.01 -1.2464,0.0743 -2.3707,0.2957 -0.31872,0.0628 -1.0672,0.16259 -1.6632,0.22183 -0.59605,0.0592 -1.2124,0.1742 -1.3697,0.25546 -0.1573,0.0813 -0.73641,0.19695 -1.2869,0.25708 -0.55052,0.0601 -1.2854,0.18049 -1.6331,0.26744 -0.3477,0.087 -1.0826,0.23169 -1.6331,0.32162 -2.4789,0.40494 -4.8144,0.86265 -5.6896,1.115 -0.37667,0.10861 -0.92192,0.23088 -1.2117,0.27171 -0.28975,0.0408 -0.71646,0.14436 -0.94826,0.23008 -0.2318,0.0857 -0.72964,0.21847 -1.1063,0.295 -0.37667,0.0765 -0.94411,0.21301 -1.261,0.30329 -0.31686,0.0903 -0.70624,0.16415 -0.86529,0.16415 -0.15904,0 -0.53987,0.0921 -0.84628,0.2047 -0.30641,0.11258 -0.86328,0.25869 -1.2375,0.32469 -0.37421,0.066 -0.80093,0.18163 -0.94826,0.25697 -0.14733,0.0753 -0.48124,0.1716 -0.74201,0.21391 -0.26077,0.0423 -0.64008,0.14665 -0.8429,0.23186 -0.34925,0.14674 -0.92834,0.32166 -2.3707,0.71608 -0.3477,0.0951 -0.77442,0.23588 -0.94826,0.31288 -0.17384,0.077 -0.48203,0.17338 -0.68486,0.21415 -0.20282,0.0408 -0.47378,0.14061 -0.60213,0.22184 -0.12835,0.0812 -0.40826,0.1477 -0.62202,0.1477 -0.32186,0 -0.46003,0.077 -0.80394,0.44779 -0.2284,0.24629 -0.5063,0.62508 -0.61754,0.84176 -0.11124,0.21668 -0.39122,0.6863 -0.62216,1.0436 -0.23094,0.35731 -0.4199,0.69407 -0.4199,0.74836 0,0.0543 -0.09817,0.22473 -0.21815,0.37877 -0.19591,0.25153 -0.53834,0.80315 -1.1936,1.9227 -0.12177,0.20807 -0.31277,0.51625 -0.42443,0.68485 -0.67095,1.013 -1.3136,2.0279 -1.4284,2.2558 -0.07302,0.14488 -0.24111,0.38194 -0.37355,0.52681 -0.13244,0.14488 -0.36969,0.50048 -0.52722,0.79022 -0.15753,0.28975 -0.36739,0.62164 -0.46636,0.73754 -0.09897,0.1159 -0.30281,0.42409 -0.45298,0.68486 -0.15018,0.26077 -0.51366,0.75655 -0.80773,1.1017 -0.29407,0.34519 -0.53467,0.67764 -0.53467,0.73877 0,0.0611 -0.30421,0.47562 -0.67604,0.92106 -0.37181,0.44544 -0.7086,0.91901 -0.74841,1.0524 -0.03982,0.13337 -0.369,0.55068 -0.73153,0.92735 -0.36252,0.37667 -0.8753,0.99304 -1.1395,1.3697 -0.59232,0.84448 -3.4648,3.8385 -4.398,4.5841 -0.83923,0.67053 -2.7247,1.9484 -2.8749,1.9484 -0.06014,0 -0.1842,0.0649 -0.27569,0.1441 -0.17986,0.15583 -1.2768,0.54851 -1.9575,0.70074 -0.2318,0.0518 -0.84817,0.0943 -1.3697,0.0944 -0.73613,0 -1.0308,-0.045 -1.317,-0.20171 z M 75.227,95.779 c 0.3961,-0.17385 0.75445,-0.31609 0.79634,-0.31609 0.04189,0 0.27101,-0.0896 0.50915,-0.19921 0.23814,-0.10957 0.78859,-0.32732 1.2232,-0.48389 0.43462,-0.15657 1.0402,-0.39882 1.3457,-0.53833 0.30552,-0.1395 0.63924,-0.25365 0.7416,-0.25365 0.10236,0 0.37394,-0.0969 0.6035,-0.21536 0.22956,-0.11844 0.65399,-0.26705 0.94318,-0.33024 0.28918,-0.0632 0.62108,-0.17724 0.73754,-0.25345 0.11646,-0.0762 0.42511,-0.17133 0.68588,-0.21138 0.26077,-0.0401 0.65004,-0.16098 0.86504,-0.26873 0.215,-0.10775 0.46519,-0.19591 0.55597,-0.19591 0.1931,0 1.6754,-0.46648 2.3994,-0.7551 0.27583,-0.10995 0.70255,-0.24223 0.94826,-0.29395 0.24571,-0.0517 0.66011,-0.1675 0.92088,-0.2573 1.0937,-0.37658 1.5744,-0.51609 2.4151,-0.70077 0.48805,-0.10722 1.0096,-0.24449 1.159,-0.30505 0.14939,-0.0606 0.60352,-0.17612 1.0092,-0.2568 1.1027,-0.2193 2.1174,-0.47366 3.0255,-0.75844 0.44708,-0.14021 0.95913,-0.25492 1.1379,-0.25492 0.17877,0 0.4606,-0.0701 0.62633,-0.15583 0.16574,-0.0857 0.69679,-0.20142 1.1801,-0.25715 0.48332,-0.0557 1.0772,-0.17209 1.3198,-0.25858 0.24259,-0.0865 0.78784,-0.18799 1.2117,-0.22555 0.42382,-0.0376 1.0551,-0.15659 1.4028,-0.2645 0.3477,-0.10791 0.95221,-0.22811 1.3434,-0.26711 0.39119,-0.039 0.7112,-0.10128 0.7112,-0.13842 0,-0.0614 -0.39521,-0.33397 -1.3177,-0.90888 -0.39828,-0.24821 -1.5452,-1.205 -1.6582,-1.3832 -0.0431,-0.0681 -0.32762,-0.26519 -0.63217,-0.43803 -0.67963,-0.38569 -4.3558,-4.0089 -5.0316,-4.959 -0.26077,-0.36664 -0.58397,-0.79277 -0.71821,-0.94694 -0.91182,-1.0472 -1.1712,-1.3705 -1.3236,-1.65 -0.18043,-0.33098 -0.89498,-1.3875 -1.4261,-2.1086 -0.17126,-0.23252 -0.3628,-0.55799 -0.42563,-0.72326 -0.0628,-0.16528 -0.21153,-0.42546 -0.33042,-0.57818 -0.27451,-0.35263 -0.80827,-1.2657 -1.4523,-2.4843 -0.27738,-0.52484 -0.55746,-1.0491 -0.6224,-1.165 -0.27247,-0.48624 -1.7415,-3.6433 -1.8595,-3.9961 -0.10797,-0.3229 -0.35361,0.0028 -0.47247,0.62639 -0.05503,0.28873 -0.19709,0.73833 -0.31569,0.9991 -0.1186,0.26077 -0.21668,0.58316 -0.21795,0.71643 -0.0013,0.13326 -0.08082,0.39404 -0.17677,0.57949 -0.09595,0.18545 -0.23578,0.55056 -0.31072,0.81133 -0.07495,0.26077 -0.28368,0.87714 -0.46386,1.3697 -0.18018,0.49257 -0.39268,1.0938 -0.47224,1.336 -0.07955,0.24223 -0.21438,0.55042 -0.2996,0.68486 -0.08523,0.13444 -0.18797,0.41038 -0.22832,0.6132 -0.04035,0.20282 -0.14311,0.47879 -0.22836,0.61326 -0.08525,0.13447 -0.21926,0.41895 -0.29781,0.63218 -0.07855,0.21323 -0.31618,0.7907 -0.52807,1.2833 -0.21189,0.49257 -0.4261,1.028 -0.47603,1.1899 -0.04993,0.16188 -0.30176,0.73084 -0.55963,1.2644 -0.25787,0.53356 -0.59879,1.2545 -0.7576,1.6022 -0.45879,1.0045 -3.2749,6.6379 -3.8976,7.7968 -0.61432,1.1434 -1.2695,2.4002 -2.0428,3.9188 -0.2713,0.53275 -0.57195,1.0556 -0.66813,1.1618 -0.09617,0.10627 -0.29914,0.4527 -0.45103,0.76985 -0.15189,0.31715 -0.45703,0.88482 -0.67808,1.2615 -0.35766,0.60946 -0.42755,0.8429 -0.25237,0.8429 0.03033,0 0.37922,-0.14224 0.77532,-0.31608 z M 15.36,55.193 c 0.09267,-0.09267 0.12644,-0.96332 0.12644,-3.2603 0,-3.119 0.0012,-3.1346 0.23417,-3.2978 0.19825,-0.13886 0.6952,-0.16473 3.2399,-0.16864 2.4263,-0.0037 3.087,-0.03551 3.4272,-0.16483 0.2318,-0.08811 0.64063,-0.22238 0.9085,-0.29839 0.4684,-0.13289 0.9178,-0.39573 1.4487,-0.8473 0.4028,-0.34259 1.0894,-1.3217 1.1756,-1.6765 0.04375,-0.18 0.15575,-0.60987 0.2489,-0.95525 0.09315,-0.34538 0.16937,-1.0121 0.16937,-1.4817 0,-1.4396 -0.71937,-3.1961 -1.5811,-3.8608 -0.17538,-0.13527 -0.4612,-0.35758 -0.63517,-0.49402 -0.17397,-0.13644 -0.77525,-0.38586 -1.3362,-0.55427 l -1.0199,-0.3062 -4.4834,0.02746 -4.4834,0.02746 -0.029,8.4817 c -0.01595,4.6649 -0.0032,8.5884 0.02834,8.7187 0.05526,0.22845 0.10056,0.23707 1.2459,0.23707 0.78398,0 1.2316,-0.04304 1.315,-0.12644 z m 0.70606,-8.9367 c -0.5689,-0.17861 -0.57962,-0.23638 -0.57962,-3.1264 0,-2.5261 0.01111,-2.6777 0.21072,-2.8773 0.1995,-0.19951 0.3512,-0.21072 2.8503,-0.21072 2.4198,0 2.672,0.01721 3.0292,0.2067 0.2143,0.11369 0.51516,0.2319 0.66856,0.2627 0.28954,0.05812 0.54459,0.38646 1.0583,1.3625 0.74025,1.4063 0.06218,3.1943 -1.548,4.0817 l -0.63218,0.34842 -2.3707,0.02583 c -1.3039,0.01421 -2.5128,-0.01881 -2.6866,-0.07337 z m 22.811,8.9051 c 0.24637,-0.08692 0.59608,-0.15822 0.77712,-0.15844 0.18105,-2.11e-4 0.47468,-0.08912 0.65252,-0.19756 0.17783,-0.10844 0.4386,-0.23215 0.57949,-0.27491 0.44976,-0.13649 1.6649,-1.1301 2.1213,-1.7346 0.51217,-0.67828 1.3472,-2.2789 1.3494,-2.5866 0.0011,-0.1159 0.11947,-0.68474 0.26366,-1.2641 0.49994,-2.0088 0.2991,-4.4298 -0.55509,-6.6908 -0.31998,-0.847 -1.2631,-2.2917 -1.7225,-2.6387 -0.18843,-0.14232 -0.46454,-0.35629 -0.61358,-0.47548 -0.38921,-0.3113 -1.3069,-0.73017 -2.2202,-1.0133 -0.77346,-0.23982 -0.883,-0.24502 -5.1628,-0.24502 l -4.3725,0 -0.02696,8.5526 c -0.02418,7.6712 -0.0098,8.5697 0.13924,8.7187 0.14563,0.14563 0.67189,0.16619 4.2545,0.16619 3.3648,0 4.1676,-0.02797 4.5363,-0.15804 z m -5.8582,-2.0298 c -0.34122,-0.22784 -0.3582,-0.53986 -0.3582,-6.5795 0,-5.2978 0.0202,-6.0707 0.16402,-6.276 0.16068,-0.2294 0.20952,-0.23419 2.397,-0.23524 1.9833,-9.48e-4 2.3096,0.0237 2.9178,0.22036 1.1081,0.35826 1.5932,0.63328 2.299,1.3033 0.79244,0.75232 1.1848,1.5086 1.4512,2.7973 0.25548,1.2359 0.31466,3.2805 0.11113,3.8398 -0.08553,0.23505 -0.1879,0.66443 -0.22749,0.95418 -0.12439,0.9105 -0.69128,1.9551 -1.3916,2.5642 -0.84035,0.73092 -1.4895,1.0545 -2.3646,1.1786 -0.40558,0.05752 -0.82532,0.15163 -0.93275,0.20913 -0.2241,0.11993 -3.8894,0.14148 -4.0655,0.02391 z m 18.02,2.0223 c 0.14408,-0.14408 0.16557,-0.63465 0.16557,-3.7801 0,-3.2323 0.01841,-3.6299 0.17407,-3.7592 0.13785,-0.11451 0.97652,-0.15557 4.0301,-0.19728 l 3.856,-0.05268 0,-1.0536 0,-1.0536 -3.7877,-0.02769 c -3.7181,-0.02719 -3.7922,-0.03188 -4.0301,-0.25543 -0.23702,-0.22266 -0.24242,-0.27382 -0.24242,-2.2965 0,-1.6198 0.03243,-2.1131 0.14948,-2.2733 0.14273,-0.1953 0.34828,-0.2069 4.5569,-0.2572 l 4.4075,-0.05268 0,-1.1063 0,-1.1063 -5.8357,-0.02724 c -4.2648,-0.01991 -5.8749,0.0052 -5.9811,0.09343 -0.12186,0.10114 -0.14084,1.5006 -0.11724,8.6445 0.02458,7.4414 0.04822,8.5365 0.1862,8.6237 0.08692,0.05494 0.64065,0.10061 1.2305,0.1015 0.83604,0.0013 1.1089,-0.03488 1.238,-0.16396 z" />
  <path
     style="fill:#bdc4ca"
     inkscape:connector-curvature="0"
     id="path12"
     d="m 141.701,167.359 c -0.62697,-0.19313 -1.6139,-1.1424 -3.9373,-3.7873 -0.50906,-0.5795 -1.7682,-1.9326 -2.7981,-3.0068 -1.0299,-1.0742 -2.1244,-2.2596 -2.4322,-2.6341 -0.68164,-0.82922 -2.4866,-2.7852 -4.467,-4.8408 -0.81129,-0.84207 -1.8847,-2.0049 -2.3854,-2.584 -0.50068,-0.57912 -1.2512,-1.3848 -1.6678,-1.7905 -1.774,-1.7274 -2.3702,-2.3508 -2.771,-2.8975 -0.23365,-0.31872 -0.78513,-0.96572 -1.2255,-1.4378 -2.0511,-2.1984 -2.6876,-2.989 -3.1688,-3.9357 -0.29856,-0.58743 -0.35526,-0.82295 -0.39849,-1.6556 -0.0277,-0.53389 -0.0195,-1.0938 0.0182,-1.2442 0.12537,-0.4995 0.90277,-1.2134 1.7341,-1.5925 l 0.77704,-0.35434 3.3127,0 c 2.082,0 3.3884,-0.0405 3.5165,-0.10907 0.19983,-0.10694 0.2038,-0.36701 0.2038,-13.358 0,-12.979 0.004,-13.262 0.21072,-13.849 0.1159,-0.32975 0.21073,-0.65385 0.21073,-0.72021 0,-0.20951 0.56463,-1.0642 0.94826,-1.4354 0.43676,-0.42259 1.1374,-0.83059 1.671,-0.97309 0.23691,-0.0633 5.4598,-0.10942 13.662,-0.12074 l 13.279,-0.0183 0.72915,0.32125 c 0.83481,0.36779 1.9007,1.3087 2.016,1.7795 0.0402,0.16431 0.16068,0.46399 0.26769,0.66596 0.18626,0.35157 0.19455,0.94724 0.19455,13.983 0,13.354 0.004,13.618 0.2038,13.725 0.12817,0.0686 1.4477,0.10925 3.556,0.10956 3.293,0 3.3633,0.005 3.9844,0.25359 0.3477,0.1392 0.85739,0.45105 1.1326,0.69301 l 0.50047,0.43991 0,1.7298 c 0,0.95793 -0.0424,1.7298 -0.0951,1.7298 -0.0523,0 -0.14291,0.13039 -0.2014,0.28975 -0.21162,0.57654 -1.1937,1.7666 -3.3088,4.0093 -1.1858,1.2573 -2.5784,2.7558 -3.0947,3.3298 -0.51635,0.57404 -1.7896,1.949 -2.8294,3.0555 -2.4121,2.5668 -2.4634,2.6224 -3.7516,4.0664 -1.0016,1.1227 -1.7076,1.8761 -4.0975,4.3725 -0.49927,0.52154 -1.1415,1.2327 -1.4272,1.5804 -0.2857,0.34769 -0.90076,1.036 -1.3668,1.5295 -0.46605,0.49355 -1.1981,1.2759 -1.6267,1.7385 -2.4042,2.5948 -2.6675,2.8218 -3.4667,2.9894 -0.70604,0.14799 -1.0077,0.13925 -1.6114,-0.0467 z m -20.114,-20.283 c 0,-0.0614 0.0474,-0.0823 0.10537,-0.0465 0.0579,0.0358 0.10536,0.086 0.10536,0.11158 0,0.0256 -0.0474,0.0465 -0.10536,0.0465 -0.058,0 -0.10537,-0.0502 -0.10537,-0.11158 z m -91.981,-0.0992 c 0,-0.058 0.04741,-0.10536 0.10536,-0.10536 0.05795,0 0.10536,0.0474 0.10536,0.10536 0,0.058 -0.04741,0.10536 -0.10536,0.10536 -0.05795,0 -0.10536,-0.0474 -0.10536,-0.10536 z m 91.011,-0.58381 c -0.0313,-0.0314 -19.941,-0.0553 -44.243,-0.0531 -27.467,0.002 -44.245,-0.0336 -44.341,-0.0953 -0.08525,-0.0546 -0.12893,-0.12529 -0.09708,-0.15715 0.03919,-0.0392 80.004,-0.0926 88.888,-0.0594 0.0724,0 0.13171,0.0953 0.13171,0.21122 0,0.19435 -0.20438,0.28732 -0.33797,0.15373 z m -93.757,-1.6401 c -0.17348,-0.32416 0.06413,-0.54609 0.27656,-0.25829 0.08303,0.11249 0.15095,0.26658 0.15095,0.34242 0,0.2186 -0.29674,0.1602 -0.42751,-0.0841 z m 0.8214,-0.33111 c -0.07643,-0.20087 0.10718,-0.60584 0.27467,-0.60584 0.22942,0 0.41004,0.28217 0.33399,0.52176 -0.07637,0.24063 -0.5255,0.30266 -0.60866,0.0841 z m -0.46088,-1.29 c -0.0365,-0.0951 -0.01584,-0.22343 0.04592,-0.28518 0.16053,-0.16053 0.46469,-0.0138 0.42276,0.20393 -0.04671,0.24253 -0.38432,0.30106 -0.46867,0.0812 z m -0.45982,-1.0313 c -0.1399,-0.11361 -0.15954,-4.3987 -0.17108,-37.321 -0.0072,-20.456 -0.0316,-37.335 -0.05429,-37.509 -0.02269,-0.174 -0.08144,-0.37948 -0.13056,-0.45697 -0.12443,-0.19632 0.07283,-0.36282 0.4569,-0.38567 l 0.32048,-0.01907 0.0222,37.097 c 0.0122,20.403 0.01133,37.358 -0.0019,37.676 -0.04252,1.0205 -0.11936,1.1804 -0.4417,0.91857 z m 23.074,-19.313 c -0.5859,-0.21646 -1.0988,-0.44117 -1.7608,-0.77137 -2.1831,-1.089 -2.1408,-1.0505 -2.3733,-2.1592 -0.10023,-0.47784 -0.08797,-0.71195 0.0759,-1.4494 0.1075,-0.48375 0.27553,-1.0455 0.3734,-1.2483 0.09788,-0.20283 0.212,-0.51101 0.2536,-0.68486 0.04161,-0.17385 0.2529,-0.60057 0.46955,-0.94826 0.21665,-0.3477 0.57562,-0.96407 0.79771,-1.3697 0.22209,-0.40564 0.60283,-0.9746 0.84609,-1.2644 0.24326,-0.28974 0.56386,-0.71646 0.71244,-0.94826 0.53989,-0.84227 3.7171,-4.06 4.5039,-4.5613 0.14487,-0.0923 0.71383,-0.53076 1.2644,-0.97431 0.55052,-0.44357 1.1236,-0.87301 1.2735,-0.95433 0.14992,-0.0813 0.50552,-0.32888 0.79022,-0.55013 0.63191,-0.4911 3.2033,-2.1248 3.7839,-2.404 0.2318,-0.11148 0.77234,-0.39097 1.2012,-0.62109 0.42887,-0.23011 0.91146,-0.41839 1.0724,-0.41839 0.30276,0 0.62382,0.23588 0.62382,0.45832 0,0.15597 -1.8425,2.0704 -1.9926,2.0704 -0.41988,0 -7.322,6.894 -7.955,7.9456 -0.12096,0.20096 -0.49459,0.71198 -0.8303,1.1356 -0.90849,1.1464 -1.6643,2.2012 -1.7941,2.5039 -0.06325,0.14753 -0.24102,0.43418 -0.39502,0.637 -0.33986,0.44756 -1.1723,2.1634 -1.418,2.9226 -0.23096,0.71381 -0.15851,0.91566 0.3018,0.84096 0.49972,-0.0811 2.2024,-0.93796 3.1254,-1.5729 0.9216,-0.63392 4.4817,-4.1762 5.0007,-4.9757 0.19064,-0.29367 0.61942,-0.84212 0.95284,-1.2188 0.33342,-0.37667 0.81029,-0.99648 1.0597,-1.3773 0.24942,-0.38088 0.53124,-0.75701 0.62625,-0.83585 0.09501,-0.0789 0.27062,-0.3362 0.39025,-0.57187 0.11963,-0.23568 0.37855,-0.64186 0.57537,-0.90263 0.39717,-0.52622 1.0789,-1.5349 1.5624,-2.3118 0.30192,-0.48515 0.43096,-0.68168 1.3185,-2.008 0.21328,-0.31872 0.5686,-0.91139 0.78958,-1.317 0.22099,-0.40565 0.59575,-1.0457 0.83281,-1.4224 0.53597,-0.85163 0.61367,-0.97988 0.98947,-1.6331 0.16669,-0.28974 0.46981,-0.81129 0.6736,-1.159 0.93508,-1.5954 1.4543,-2.5361 2.5876,-4.6886 0.19833,-0.37667 0.39924,-0.73227 0.44647,-0.79022 0.13397,-0.16438 3.0956,-5.8503 3.2654,-6.2691 0.05873,-0.14488 0.15518,-0.33453 0.21433,-0.42145 0.05915,-0.0869 0.17886,-0.32399 0.26602,-0.52682 0.08716,-0.20282 0.20486,-0.43989 0.26154,-0.52681 0.05668,-0.0869 0.15361,-0.27636 0.21539,-0.42096 0.12838,-0.30049 1.7486,-3.5539 1.8892,-3.7935 0.1493,-0.25445 1.0056,-2.1073 1.6947,-3.6668 0.35074,-0.79379 0.70304,-1.5855 0.7829,-1.7593 0.3929,-0.85537 0.66527,-1.5003 0.7342,-1.7385 0.04193,-0.14487 0.13522,-0.35823 0.20733,-0.47413 0.0721,-0.1159 0.19098,-0.40038 0.26418,-0.63218 0.07319,-0.2318 0.19173,-0.51628 0.26341,-0.63218 0.07168,-0.1159 0.19111,-0.40038 0.2654,-0.63218 0.07429,-0.2318 0.17195,-0.46886 0.21702,-0.52681 0.04507,-0.05795 0.17565,-0.36614 0.29017,-0.68486 0.11452,-0.31872 0.335,-0.91139 0.48995,-1.317 0.15495,-0.40564 0.34311,-0.9509 0.41813,-1.2117 0.07502,-0.26077 0.2382,-0.66308 0.36263,-0.89402 0.12443,-0.23094 0.22623,-0.50509 0.22623,-0.60922 0,-0.10413 0.07778,-0.3656 0.17284,-0.58105 0.28093,-0.63672 0.66694,-1.7229 0.81323,-2.2883 0.07497,-0.28975 0.21566,-0.67855 0.31266,-0.86401 0.09699,-0.18546 0.17635,-0.46682 0.17635,-0.62525 0,-0.15843 0.09214,-0.48082 0.20476,-0.71643 0.11262,-0.2356 0.27547,-0.71285 0.3619,-1.0606 0.08643,-0.3477 0.23984,-0.90728 0.34092,-1.2435 0.17144,-0.57029 0.17235,-0.6552 0.01349,-1.2644 -0.09366,-0.35915 -0.224,-0.86636 -0.28966,-1.1271 -0.06565,-0.26077 -0.20922,-0.78232 -0.31905,-1.159 -0.10982,-0.37667 -0.23111,-0.8508 -0.26952,-1.0536 -0.03842,-0.20282 -0.15222,-0.62954 -0.2529,-0.94826 -0.10068,-0.31872 -0.21653,-0.86397 -0.25743,-1.2117 -0.0409,-0.3477 -0.16086,-0.91745 -0.26656,-1.2661 -0.1057,-0.34867 -0.22518,-0.96504 -0.26551,-1.3697 -0.04033,-0.40467 -0.14026,-0.9701 -0.22208,-1.2565 -0.08182,-0.2864 -0.21949,-1.2603 -0.30594,-2.1641 -0.08645,-0.90386 -0.21551,-1.926 -0.28679,-2.2714 -0.08983,-0.43526 -0.12946,-1.9053 -0.12914,-4.7898 4.22e-4,-3.5935 0.02513,-4.2553 0.18112,-4.8467 0.09936,-0.37667 0.22859,-1.0314 0.28716,-1.4549 0.05858,-0.42354 0.1774,-0.90717 0.26405,-1.0747 0.08665,-0.16756 0.15754,-0.36253 0.15754,-0.43327 0,-0.38164 0.69074,-1.496 1.1936,-1.9256 0.46081,-0.39368 0.67028,-0.49143 1.357,-0.63329 0.96357,-0.19903 2.2773,-0.21702 3.0373,-0.04159 0.3006,0.06939 0.83762,0.27089 1.1934,0.44779 0.61591,0.30626 0.66628,0.36136 1.054,1.1529 0.67736,1.383 0.75864,2.9069 0.23878,4.4773 -0.46731,1.4116 -0.75746,1.3108 -1.3878,-0.48208 -0.56384,-1.6039 -1.0248,-2.4813 -1.6265,-3.0958 -0.42692,-0.43599 -0.55479,-0.51269 -0.71331,-0.42785 -0.31835,0.17038 -0.87315,1.4124 -1.0279,2.3012 -0.07864,0.45165 -0.21574,1.2005 -0.30467,1.6641 -0.21097,1.0998 -0.22029,4.9671 -0.0165,6.8486 0.28468,2.6284 0.38417,3.3816 0.64014,4.8467 0.14175,0.81129 0.2841,1.6939 0.31634,1.9613 0.06357,0.52733 0.27072,0.90214 0.44058,0.79716 0.05857,-0.0362 0.13885,-0.38719 0.1784,-0.77998 0.03955,-0.39279 0.16131,-1.1172 0.27057,-1.6097 0.10927,-0.49257 0.22507,-1.1089 0.25734,-1.3697 0.03227,-0.26077 0.15264,-0.99568 0.2675,-1.6331 0.11486,-0.63742 0.25447,-1.5146 0.31025,-1.9492 0.0558,-0.43462 0.17112,-1.1458 0.25628,-1.5804 0.0852,-0.43462 0.23781,-1.2644 0.33921,-1.8438 0.19828,-1.1331 0.36832,-1.5287 0.65608,-1.5261 0.35148,0.0031 0.46114,0.18569 0.66985,1.1152 0.18793,0.837 0.20948,1.2988 0.20056,4.2985 -0.006,2.0584 -0.0713,4.0387 -0.16823,5.1101 -0.087,0.9621 -0.20501,2.6156 -0.26218,3.6744 -0.0572,1.0588 -0.19788,2.4017 -0.3127,2.9842 -0.11481,0.58252 -0.20854,1.2572 -0.20827,1.4992 3.2e-4,0.24203 -0.0794,0.82561 -0.17708,1.2969 -0.17511,0.84491 -0.17422,0.86832 0.0637,1.6858 0.13269,0.45594 0.30376,0.92874 0.38014,1.0507 0.0764,0.12191 0.17132,0.40639 0.21096,0.63218 0.0396,0.22578 0.15832,0.60017 0.26373,0.83196 0.49587,1.0904 0.71736,1.6374 0.78189,1.9313 0.0386,0.17572 0.13581,0.37396 0.21605,0.44055 0.0802,0.06659 0.20231,0.29508 0.27128,0.50775 0.12314,0.37968 1.2987,2.9269 1.6372,3.5476 0.0948,0.17385 0.37635,0.69539 0.62561,1.159 1.1623,2.1617 2.5668,4.4365 3.2445,5.2549 0.23391,0.28247 0.57002,0.74317 0.74692,1.0238 0.1769,0.2806 0.67724,0.93681 1.1119,1.4582 0.43462,0.52143 1.0222,1.2378 1.3058,1.592 0.48549,0.60637 1.055,1.1229 2.6093,2.3663 0.36218,0.28975 0.92976,0.76388 1.2613,1.0536 0.59742,0.52212 1.9139,1.4908 2.5774,1.8965 0.18955,0.1159 0.59681,0.3814 0.90503,0.59001 0.3082,0.20861 0.93968,0.61596 1.4033,0.90522 0.46359,0.28927 0.97993,0.61643 1.1474,0.72702 0.43966,0.29033 0.48931,0.31845 1.0125,0.5735 0.50308,0.24526 0.41964,0.24514 2.4234,0.003 1.1783,-0.14212 3.7098,-0.30559 6.6217,-0.42759 4.4994,-0.18852 10.37,0.24131 12.502,0.91533 0.28975,0.0916 0.79792,0.23022 1.1293,0.308 0.33135,0.0778 0.78107,0.23715 0.99938,0.35415 0.2183,0.117 0.4403,0.21273 0.49333,0.21273 0.48565,0 2.4526,1.3602 2.9237,2.0218 0.88212,1.2388 1.0744,2.5127 0.53898,3.5699 -0.38663,0.76333 -0.68495,0.81479 -1.1946,0.2061 -0.9855,-1.177 -1.2749,-1.4441 -1.9155,-1.7676 -0.37287,-0.18834 -0.74556,-0.34243 -0.82821,-0.34243 -0.0826,0 -0.25474,-0.0732 -0.38243,-0.16262 -0.12769,-0.0894 -0.60051,-0.22783 -1.0507,-0.30755 -0.4502,-0.0797 -0.9523,-0.19629 -1.1158,-0.25905 -0.16346,-0.0628 -0.85095,-0.1622 -1.5278,-0.22095 -0.67681,-0.0587 -1.3728,-0.15044 -1.5466,-0.20376 -0.77998,-0.2392 -6.6592,-0.3826 -9.3773,-0.22872 l -1.159,0.0656 0.54965,0.28975 c 0.30231,0.15936 0.60738,0.28974 0.67793,0.28974 0.0706,0 0.32105,0.0908 0.55666,0.20185 0.80589,0.37974 2.0772,0.85178 2.2941,0.85178 0.11916,0 0.3645,0.0897 0.5452,0.19936 0.18068,0.10964 0.49446,0.23172 0.69729,0.27127 0.37233,0.0726 0.83356,0.23038 2.1357,0.73049 0.39231,0.15067 0.83069,0.27395 0.97418,0.27395 0.1435,0 0.53372,0.0922 0.86716,0.20485 0.33344,0.11267 0.84332,0.23575 1.1331,0.27352 0.28974,0.0378 0.8237,0.15758 1.1866,0.26624 0.98621,0.29533 4.104,0.47586 5.5713,0.3226 2.0003,-0.20893 2.2506,-0.14456 2.2506,0.57867 0,0.47109 -0.19888,0.84246 -0.70251,1.3118 -0.56431,0.52591 -0.79911,0.65108 -1.8789,1.0016 -0.94452,0.30664 -0.95803,0.3078 -3.4243,0.29489 -2.0499,-0.0107 -2.6574,-0.0502 -3.5296,-0.22947 -0.57949,-0.11908 -1.2907,-0.2469 -1.5804,-0.28405 -0.28975,-0.0371 -0.82814,-0.1591 -1.1964,-0.271 -0.36826,-0.1119 -0.77987,-0.20346 -0.91464,-0.20346 -0.13476,0 -0.61575,-0.11372 -1.0689,-0.2527 -0.45312,-0.13899 -1.0135,-0.29973 -1.2453,-0.35721 -0.2318,-0.0575 -0.56369,-0.1552 -0.73754,-0.21716 -0.38464,-0.13711 -1.1546,-0.38609 -2.0019,-0.64741 -0.3477,-0.10723 -0.96407,-0.32213 -1.3697,-0.47755 -0.40564,-0.15543 -0.99321,-0.37227 -1.3057,-0.48187 -0.31249,-0.1096 -0.62067,-0.24071 -0.68486,-0.29135 -0.0642,-0.0506 -0.30634,-0.15264 -0.53814,-0.22667 -0.23179,-0.074 -0.58669,-0.22244 -0.78866,-0.32982 -0.20195,-0.10737 -0.42963,-0.19522 -0.50594,-0.19522 -0.0763,0 -0.31406,-0.0914 -0.52837,-0.2031 -0.2143,-0.1117 -1.2377,-0.61452 -2.2742,-1.1174 l -1.8845,-0.91428 -1.5924,0.12921 c -0.87583,0.0711 -2.0316,0.21683 -2.5683,0.32392 -0.53672,0.10708 -1.485,0.22438 -2.1072,0.26066 -0.62227,0.0363 -1.2974,0.11282 -1.5002,0.1701 -0.20283,0.0573 -1.0326,0.1895 -1.8438,0.29381 -0.8112,0.10431 -1.7833,0.26331 -2.1599,0.35332 -0.37667,0.09 -0.99304,0.20929 -1.3697,0.26507 -0.64145,0.095 -1.2459,0.20504 -3.3189,0.60434 -0.4636,0.0893 -1.2996,0.22983 -1.8577,0.3123 -0.55816,0.0825 -1.1344,0.1954 -1.2805,0.25095 -0.14612,0.0555 -0.56658,0.15228 -0.93438,0.21495 -0.36779,0.0627 -1.0243,0.20351 -1.4589,0.31297 -0.43462,0.10946 -1.0984,0.27678 -1.4751,0.37183 -0.37667,0.095 -0.89822,0.22068 -1.159,0.2792 -0.26077,0.0585 -0.78232,0.19549 -1.159,0.30437 -0.37667,0.10889 -0.92192,0.22752 -1.2117,0.26362 -0.28978,0.0361 -0.71646,0.13263 -0.94826,0.2145 -0.2318,0.0819 -0.76832,0.22124 -1.1923,0.3097 -0.42396,0.0885 -0.85964,0.20837 -0.96819,0.26647 -0.10855,0.0581 -0.49658,0.17361 -0.86229,0.25672 -0.36571,0.0831 -0.90199,0.22713 -1.1917,0.32006 -0.28975,0.0929 -0.92982,0.28989 -1.4224,0.43769 -1.5516,0.46557 -2.5716,0.80392 -2.8659,0.95065 -0.15648,0.078 -0.43459,0.14184 -0.61801,0.14184 -0.25785,0 -0.42639,0.10156 -0.74308,0.44779 -0.22528,0.24628 -0.48608,0.60881 -0.57957,0.80561 -0.09349,0.19681 -0.34227,0.6301 -0.55284,0.96288 -0.43779,0.69184 -0.6902,1.1109 -1.0759,1.7861 -0.30942,0.54167 -1.0001,1.6618 -1.3731,2.2267 -0.13851,0.20982 -0.39408,0.60824 -0.56793,0.88539 -1.0512,1.6758 -1.7903,2.7953 -2.0852,3.1584 -0.14121,0.17385 -0.2917,0.42776 -0.33442,0.56426 -0.04272,0.1365 -0.32353,0.53951 -0.624,0.89558 -0.30048,0.35607 -0.6597,0.83706 -0.79826,1.0689 -0.13855,0.2318 -0.4529,0.64036 -0.69853,0.90793 -0.24564,0.26757 -0.56507,0.71799 -0.70985,1.0009 -0.14477,0.28296 -0.51621,0.77964 -0.82542,1.1037 -0.30921,0.32411 -0.72814,0.81446 -0.93096,1.0897 -0.607,0.82368 -2.2083,2.5648 -3.5067,3.8127 -1.8652,1.7928 -3.8365,3.0796 -5.5018,3.5914 -0.81174,0.24948 -2.4393,0.41593 -2.7921,0.28557 z m 25.415,-26.978 c 0.27333,-0.13737 0.5547,-0.24976 0.62525,-0.24976 0.07055,0 0.32105,-0.0909 0.55666,-0.20194 0.5216,-0.24589 1.6467,-0.6794 2.2195,-0.85518 0.2318,-0.0711 0.47804,-0.17415 0.54721,-0.22893 0.06917,-0.0548 0.35365,-0.1628 0.63218,-0.24005 0.27853,-0.0772 0.74348,-0.2354 1.0332,-0.35145 0.28975,-0.11605 0.95353,-0.33855 1.4751,-0.49443 0.52154,-0.15588 1.1142,-0.35142 1.317,-0.43452 0.2028,-0.0831 0.62954,-0.21721 0.94826,-0.29801 0.62746,-0.15905 1.3873,-0.40074 2.0546,-0.65354 0.2318,-0.0878 0.72964,-0.2462 1.1063,-0.35198 0.37667,-0.10577 1.0168,-0.29186 1.4224,-0.41354 0.40565,-0.12167 1.0457,-0.29784 1.4224,-0.39148 0.37668,-0.0937 1.0642,-0.27643 1.5278,-0.40619 0.4636,-0.12976 1.1037,-0.28859 1.4224,-0.35295 0.75582,-0.15263 1.3289,-0.29415 2.4233,-0.59843 1.3908,-0.38668 2.2925,-0.59012 3.2662,-0.73696 0.49257,-0.0743 1.0378,-0.1906 1.2117,-0.2585 0.1739,-0.0679 0.79022,-0.19028 1.3697,-0.27195 0.5795,-0.0817 1.3129,-0.22028 1.6297,-0.30801 0.31686,-0.0877 0.791,-0.16024 1.0536,-0.16112 0.97622,-0.003 0.9033,-0.12163 -0.68073,-1.1047 -0.37207,-0.23091 -1.4871,-1.1401 -1.7407,-1.4194 -0.0877,-0.0966 -0.39594,-0.31054 -0.68486,-0.47535 -0.5822,-0.33212 -4.7844,-4.4815 -5.0409,-4.9775 -0.0859,-0.16601 -0.51269,-0.72429 -0.94853,-1.2406 -0.43585,-0.51633 -0.85452,-1.0588 -0.93038,-1.2054 -0.0759,-0.14666 -0.36315,-0.57043 -0.63841,-0.94172 -0.27526,-0.37128 -0.50047,-0.70901 -0.50047,-0.75051 0,-0.0415 -0.16549,-0.28363 -0.36775,-0.53807 -0.20226,-0.25444 -0.3682,-0.51246 -0.36876,-0.57337 -5.3e-4,-0.06092 -0.18423,-0.39281 -0.40814,-0.73754 -0.35935,-0.55325 -1.0574,-1.7709 -1.7486,-3.0501 -0.12525,-0.2318 -0.27908,-0.51628 -0.34185,-0.63218 -0.11459,-0.21156 -0.77683,-1.6025 -1.3889,-2.9172 -0.18041,-0.38751 -0.32802,-0.77286 -0.32802,-0.85634 0,-0.08348 -0.06795,-0.20817 -0.151,-0.2771 -0.1213,-0.10067 -0.18114,-0.0773 -0.30426,0.1188 -0.0843,0.13426 -0.18432,0.42126 -0.22228,0.63778 -0.03795,0.21651 -0.16077,0.59582 -0.27292,0.8429 -0.11215,0.24708 -0.20599,0.56777 -0.20854,0.71265 -0.0025,0.14487 -0.10287,0.47677 -0.22293,0.73754 -0.12007,0.26077 -0.28087,0.68749 -0.35734,0.94826 -0.07647,0.26077 -0.26562,0.80602 -0.42032,1.2117 -0.15471,0.40565 -0.34942,0.94976 -0.43269,1.2091 -0.08327,0.25938 -0.24527,0.6655 -0.36,0.90251 -0.11473,0.237 -0.2086,0.48601 -0.2086,0.55336 0,0.06735 -0.11333,0.37241 -0.25184,0.67793 -0.234,0.51613 -0.44415,1.0114 -0.99569,2.3466 -0.56347,1.3641 -0.89209,2.1162 -0.96677,2.2126 -0.04489,0.0579 -0.36927,0.74544 -0.72085,1.5278 -0.54456,1.2117 -2.7441,5.6373 -3.5608,7.1646 -0.13945,0.26077 -0.60579,1.1379 -1.0363,1.9492 -1.9953,3.76 -3.1179,5.7929 -3.2987,5.9738 -0.06968,0.0697 -0.12668,0.23892 -0.12668,0.37611 0,0.28982 0.14543,0.26778 0.9711,-0.14718 z m 75.158,8.6088 c -0.0892,-0.14429 -0.0179,-77.208 0.0715,-77.298 0.0421,-0.04206 0.15011,-0.01536 0.2401,0.05933 0.11765,0.09763 0.15787,0.30172 0.1431,0.72621 -0.0113,0.32473 -0.0124,17.651 -0.002,38.504 0.01,20.852 -0.009,37.957 -0.0414,38.01 -0.0771,0.12469 -0.33349,0.12404 -0.41078,-0.001 z m -124.89,-37.851 c 0.05387,-0.1616 0.50156,-0.19205 0.50646,-0.03445 0.0018,0.05795 -0.1219,0.12086 -0.27489,0.13981 -0.19432,0.02407 -0.26411,-0.0077 -0.23157,-0.10536 z m 0.14325,-0.69296 c -0.04343,-0.04346 -4.8519,-0.10456 -10.686,-0.13578 L 4.36795,65.68178 3.57773,65.4369 c -1.3556,-0.42008 -2.3602,-1.2716 -3.2029,-2.7148 l -0.37945,-0.6499 0,-15.444 c 0,-9.2976 0.03847,-15.444 0.09665,-15.444 0.05316,0 0.18122,-0.22147 0.2846,-0.49215 0.25437,-0.66606 1.4704,-1.8793 2.33,-2.3249 0.3612,-0.1872 0.93016,-0.39642 1.2644,-0.46495 0.42819,-0.08781 3.6411,-0.14524 10.88,-0.19451 5.6501,-0.03845 10.415,-0.10478 10.589,-0.14741 0.17385,-0.04263 0.62427,-0.10998 1.0009,-0.14966 0.57489,-0.06057 0.71446,-0.04255 0.86924,0.11222 0.17438,0.17438 1.3325,0.18438 21.344,0.18438 23.673,0 22.437,-0.03716 23.82,0.7165 0.96518,0.52597 1.8014,1.4054 2.2951,2.4137 l 0.40196,0.82087 0,14.961 0,14.961 -0.33773,0.8179 c -0.18575,0.44984 -0.54135,1.0558 -0.79022,1.3465 -0.60764,0.70991 -1.6858,1.4252 -2.5712,1.7058 l -0.72604,0.23012 -21.649,0.03269 c -13.973,0.0211 -21.685,0.06935 -21.752,0.13609 -0.12036,0.12036 -1.5687,0.1413 -1.6855,0.02437 z m -10.282,-10.56 c 0.13296,-0.08394 0.16641,-0.61426 0.21072,-3.3407 l 0.05268,-3.2409 0.26341,-0.13313 c 0.19347,-0.09778 1.0531,-0.13354 3.2377,-0.13468 2.8951,-0.0015 2.9953,-0.0086 3.763,-0.26632 1.313,-0.44074 1.8036,-0.77785 2.5065,-1.722 0.63084,-0.8474 0.92016,-1.8934 0.92213,-3.3337 0.0014,-0.96336 -0.04367,-1.2945 -0.2669,-1.9648 -0.53133,-1.5954 -1.5328,-2.565 -3.2085,-3.1064 l -0.89558,-0.28934 -4.3466,-0.04432 c -2.3906,-0.02437 -4.465,-0.01461 -4.6096,0.02169 l -0.26298,0.06601 0,8.7255 c 0,4.799 0.03161,8.7571 0.07024,8.7958 0.10878,0.10878 2.3857,0.07968 2.5638,-0.03277 z m 0.48888,-9.2938 -0.27614,-0.24384 -0.0093,-2.5814 c -0.0051,-1.4198 0.02197,-2.661 0.06012,-2.7584 0.13016,-0.33221 0.66665,-0.40254 3.0447,-0.39918 2.2573,0.0032 2.3447,0.01123 2.8554,0.26244 0.28975,0.14253 0.58166,0.25958 0.64871,0.26011 0.20171,0.0016 0.97515,1.0018 1.1434,1.4787 0.20047,0.5682 0.20136,1.5313 0.0019,2.0965 -0.22772,0.64544 -0.86425,1.3385 -1.5833,1.7238 l -0.63218,0.33881 -2.4886,0.03311 c -2.4737,0.03292 -2.4903,0.03166 -2.7648,-0.21072 z m 23.06,9.1861 c 0.4636,-0.11453 0.92243,-0.2088 1.0196,-0.20948 0.29398,-0.0021 1.5583,-0.71014 2.1759,-1.2186 1.0133,-0.83424 2.098,-2.6214 2.3306,-3.8401 0.06085,-0.31872 0.18177,-0.83875 0.26873,-1.1556 0.22546,-0.82159 0.21789,-3.6368 -0.01206,-4.4855 -0.09358,-0.34538 -0.23014,-0.88874 -0.30346,-1.2075 -0.29512,-1.2831 -1.2462,-2.8532 -2.2195,-3.6645 -0.74122,-0.61778 -1.247,-0.88027 -2.5223,-1.3089 l -0.94826,-0.31874 -4.2265,-0.05204 c -3.0777,-0.0379 -4.2882,-0.01904 -4.4534,0.06937 l -0.22687,0.12142 0.02815,8.5909 c 0.02741,8.3654 0.03353,8.5948 0.23267,8.7404 0.16799,0.12282 0.90206,0.14931 4.1091,0.14828 3.5319,-0.0011 3.9851,-0.02112 4.7475,-0.20948 z m -5.5315,-2.0905 c -0.14487,-0.01977 -0.34638,-0.11009 -0.44779,-0.20071 -0.17165,-0.15338 -0.18438,-0.59273 -0.18438,-6.3589 l 0,-6.1941 0.23417,-0.16402 c 0.19128,-0.13398 0.58206,-0.16356 2.1336,-0.1615 1.0447,0.0014 2.0654,0.04563 2.2682,0.09832 1.7993,0.46747 2.162,0.64353 3.0239,1.4678 1.0692,1.0224 1.4863,2.2965 1.5777,4.8192 0.0387,1.0679 0.0123,1.5105 -0.11585,1.942 -0.09129,0.30738 -0.16597,0.6727 -0.16597,0.81183 0,0.13913 -0.14715,0.5928 -0.327,1.0082 -0.60399,1.3949 -1.842,2.3666 -3.4008,2.6693 -0.80695,0.15673 -4.0243,0.34051 -4.5958,0.26252 z m 17.602,2.1922 c 0.19544,-0.1046 0.2038,-0.25804 0.2038,-3.7404 0,-3.4908 0.0081,-3.6395 0.21072,-3.842 0.20288,-0.20288 0.3512,-0.21072 3.9827,-0.21072 2.7933,0 3.8048,-0.0328 3.8984,-0.12644 0.14351,-0.14351 0.17529,-1.8461 0.03849,-2.0616 -0.0653,-0.10288 -0.94594,-0.13911 -3.8413,-0.15804 -4.6703,-0.03054 -4.2207,0.19988 -4.2738,-2.1907 -0.04211,-1.8963 0.0099,-2.337 0.31178,-2.6388 0.20323,-0.20323 0.34482,-0.20938 4.4644,-0.1939 2.34,0.0088 4.3053,-0.01544 4.3675,-0.05386 0.06815,-0.04212 0.11302,-0.48426 0.11302,-1.1136 0,-0.92404 -0.02337,-1.0562 -0.2038,-1.1528 -0.28076,-0.15026 -11.428,-0.15026 -11.709,0 -0.19895,0.10647 -0.2038,0.31478 -0.2038,8.7485 l 0,8.6394 0.23707,0.09529 c 0.3299,0.1326 2.156,0.13228 2.4039,-4.21e-4 z m -24.398,-38.238 0,-9.8992 0.2282,-0.10396 c 0.17881,-0.08146 0.24265,-0.06634 0.29491,0.06984 0.08368,0.21806 0.0739,19.454 -0.01001,19.672 -0.03384,0.08818 -0.16313,0.16032 -0.28732,0.16031 l -0.22579,-1.6e-5 0,-9.8992 z m 106.73,9.6815 c -0.0382,-0.0618 -0.0465,-0.13538 -0.0183,-0.16349 0.0728,-0.07278 16.089,-0.05374 16.207,0.01927 0.0538,0.03323 0.0705,0.10456 0.0371,0.15851 -0.0896,0.1449 -16.136,0.13076 -16.226,-0.01429 z m -3.489,-1.1038 c -0.0343,-0.08942 -0.0349,-0.19011 -0.001,-0.22374 0.10633,-0.10632 0.38634,0.05675 0.38634,0.22498 0,0.21031 -0.30429,0.20933 -0.38509,-0.0012 z m -1.5481,-1.2671 c -0.16502,-0.20682 -0.27042,-0.40564 -0.23424,-0.44183 0.0745,-0.07455 0.69232,0.56704 0.69232,0.71902 0,0.19218 -0.16159,0.09441 -0.45808,-0.27718 z m 23.216,-0.88831 c 0,-0.05795 0.0474,-0.10536 0.10536,-0.10536 0.058,0 0.10536,0.04741 0.10536,0.10536 0,0.05795 -0.0474,0.10536 -0.10536,0.10536 -0.058,0 -0.10536,-0.04741 -0.10536,-0.10536 z m -23.971,-0.21267 c -0.0895,-0.28204 -0.0496,-0.32133 0.24739,-0.24366 0.14456,0.0378 0.22478,0.1285 0.20491,0.23168 -0.0503,0.2613 -0.37047,0.26978 -0.4523,0.01198 z m -0.63174,-0.94662 c -0.0359,-0.05812 -0.0333,-0.31889 0.006,-0.57949 0.056,-0.37348 0.11416,-0.47382 0.2746,-0.47382 0.17847,0 0.19417,0.04865 0.12749,0.39511 -0.0418,0.21731 -0.0706,0.47808 -0.064,0.57949 0.0129,0.19734 -0.23539,0.25418 -0.34383,0.07871 z m -0.35281,-1.6138 c -0.0814,-0.09809 -0.11816,-2.7277 -0.12482,-8.9295 l -0.009,-8.7904 0.21729,-0.03367 0.21729,-0.03367 0.001,8.7261 c 0.001,4.7993 0.03,8.8328 0.065,8.9631 0.0722,0.26951 -0.17055,0.33441 -0.36673,0.09803 z m 18.949,-3.5549 c 0,-0.06137 0.0474,-0.08228 0.10536,-0.04646 0.058,0.03581 0.10537,0.08603 0.10537,0.11158 0,0.02556 -0.0474,0.04646 -0.10537,0.04646 -0.0579,0 -0.10536,-0.05021 -0.10536,-0.11158 z m -5.9354,-5.6482 c -0.0386,-0.03863 -0.0702,-0.11923 -0.0702,-0.17912 0,-0.06602 0.0491,-0.0598 0.12467,0.01581 0.0686,0.06857 0.10019,0.14918 0.0702,0.17912 -0.0299,0.02994 -0.0861,0.02283 -0.12468,-0.01581 z m -112.44,-5.8301 C 27.03,5.52892 27.16536,5.37023 27.3969,5.37023 c 0.13426,0 0.20451,0.07238 0.20451,0.21072 0,0.22348 -0.35269,0.30186 -0.47413,0.10536 z m 106.54,-0.07024 c -0.12798,-0.12798 -0.0728,-0.24021 0.0878,-0.17858 0.0869,0.03336 0.15805,0.10299 0.15805,0.15474 0,0.11046 -0.14515,0.12454 -0.24585,0.02385 z m -104.95,-1.3907 C 28.6719,4.15194 28.66322,4.0634 28.698,4.02862 c 0.09429,-0.09429 0.1971,0.04439 0.14617,0.19718 -0.03569,0.10707 -0.0605,0.10698 -0.12689,-4.21e-4 z m 0.28101,-0.50537 c -0.19812,-0.07995 -0.15824,-0.26225 0.05268,-0.2408 0.3442,0.03501 0.44014,-0.0051 0.76042,-0.31822 0.19364,-0.18928 0.38397,-0.28813 0.48222,-0.25042 0.24476,0.09392 0.12248,0.29525 -0.20261,0.3336 -0.18905,0.0223 -0.32032,0.12125 -0.38438,0.28975 -0.09429,0.248 -0.37327,0.3213 -0.70833,0.1861 z m -1.2296,-0.54874 c -0.03234,-0.05233 0.0118,-0.15373 0.09808,-0.22534 0.12756,-0.10586 0.15688,-0.09941 0.15688,0.03452 0,0.1967 -0.17185,0.32531 -0.25497,0.19082 z m 2.9944,-0.48779 c 0,-0.24526 0.0357,-0.26341 0.51819,-0.26341 0.285,0 0.59319,0.02878 0.68486,0.06395 0.31882,0.12234 0.16373,0.25213 -0.30125,0.25213 -0.25735,0 -0.49722,0.04741 -0.53303,0.10536 -0.12932,0.20925 -0.36877,0.10663 -0.36877,-0.15804 z m 94.425,0.08057 c -0.74996,-0.06709 -0.47938,-0.28692 0.397,-0.32252 0.67409,-0.02738 0.76049,-0.01014 0.70276,0.14032 -0.0362,0.09435 -0.0658,0.19137 -0.0658,0.21561 0,0.04528 -0.24167,0.03747 -1.0339,-0.03341 z m 4.4539,-0.98316 c -0.0382,-0.0618 -0.043,-0.13878 -0.0108,-0.17106 0.0867,-0.08667 0.38386,0.04863 0.38386,0.17476 0,0.143 -0.28417,0.14018 -0.3731,-0.0037 z m -99.53,-0.17032 c 0.07606,-0.03044 0.16694,-0.02669 0.20195,0.0083 0.03501,0.03501 -0.02723,0.05991 -0.13829,0.05534 C 30.0529,1.66911 30.02794,1.64419 30.11199,1.61055 Z m 3.7074,-0.5602 c -0.10217,-0.06602 16.393,-0.10271 46.655,-0.10375 31.183,-0.0011 46.792,0.03357 46.748,0.10375 -0.0885,0.14314 -93.182,0.14314 -93.404,0 z m -0.7112,-0.07263 c 0.10141,-0.0265 0.26736,-0.0265 0.36877,0 0.10141,0.0265 0.01844,0.04819 -0.18438,0.04819 -0.20282,0 -0.2858,-0.02168 -0.18438,-0.04819 z" />
  <path
     style="fill:#ff0000"
     inkscape:connector-curvature="0"
     id="path14"
     d="m 141.701,167.359 c -0.62697,-0.19313 -1.6139,-1.1424 -3.9373,-3.7873 -0.50906,-0.5795 -1.7682,-1.9326 -2.7981,-3.0068 -1.0299,-1.0742 -2.1244,-2.2596 -2.4322,-2.6341 -0.68288,-0.83072 -2.4906,-2.7895 -4.467,-4.8403 -0.81129,-0.84183 -1.7781,-1.8861 -2.1485,-2.3206 -0.37038,-0.43449 -1.5634,-1.7146 -2.6512,-2.8446 -1.0878,-1.13 -2.0851,-2.1968 -2.2164,-2.3706 -0.13126,-0.17385 -0.5977,-0.70232 -1.0365,-1.1744 -2.076,-2.2332 -2.6859,-2.9914 -3.1659,-3.9357 -0.29856,-0.58743 -0.35526,-0.82295 -0.39849,-1.6556 -0.0277,-0.53389 -0.0195,-1.0938 0.0182,-1.2442 0.12537,-0.4995 0.90277,-1.2134 1.7341,-1.5925 l 0.77704,-0.35434 3.3127,0 c 2.082,0 3.3884,-0.0405 3.5165,-0.10907 0.19983,-0.10694 0.2038,-0.36701 0.2038,-13.358 0,-12.979 0.004,-13.262 0.21072,-13.849 0.1159,-0.32975 0.21073,-0.65385 0.21073,-0.72021 0,-0.20951 0.56463,-1.0642 0.94826,-1.4354 0.43786,-0.42365 1.1367,-0.83005 1.6778,-0.97578 0.24941,-0.0672 5.1904,-0.1067 13.688,-0.10954 l 13.297,-0.004 0.70371,0.31003 c 0.80948,0.35663 1.8772,1.3052 1.9905,1.7683 0.0402,0.16432 0.16068,0.464 0.26769,0.66597 0.18626,0.35156 0.19455,0.94724 0.19455,13.983 0,13.354 0.004,13.618 0.2038,13.725 0.12817,0.0686 1.4477,0.10925 3.556,0.10956 3.293,0 3.3633,0.005 3.9844,0.25358 0.3477,0.13921 0.85739,0.45106 1.1326,0.69301 l 0.50047,0.43991 0,1.7298 c 0,0.95794 -0.0424,1.7298 -0.0951,1.7298 -0.0523,0 -0.14291,0.13038 -0.2014,0.28974 -0.21162,0.57655 -1.1937,1.7666 -3.3088,4.0093 -1.1858,1.2573 -2.5784,2.7558 -3.0947,3.3298 -0.51635,0.57404 -1.7896,1.949 -2.8294,3.0555 -2.4121,2.5668 -2.4634,2.6224 -3.7516,4.0664 -1.0016,1.1227 -1.7076,1.8761 -4.0975,4.3725 -0.49927,0.52154 -1.1415,1.2327 -1.4272,1.5804 -0.2857,0.34769 -0.90076,1.036 -1.3668,1.5295 -0.46605,0.49355 -1.1981,1.2759 -1.6267,1.7385 -2.4042,2.5948 -2.6675,2.8218 -3.4667,2.9894 -0.70604,0.14799 -1.0077,0.13925 -1.6114,-0.0467 z M 49.835,122.788 c -0.5859,-0.21646 -1.0988,-0.44117 -1.7608,-0.77137 -2.1831,-1.089 -2.1408,-1.0505 -2.3733,-2.1592 -0.10023,-0.47784 -0.08797,-0.71195 0.0759,-1.4494 0.1075,-0.48375 0.27553,-1.0455 0.3734,-1.2483 0.09788,-0.20283 0.212,-0.51101 0.2536,-0.68486 0.04161,-0.17385 0.2529,-0.60057 0.46955,-0.94826 0.21665,-0.3477 0.57562,-0.96407 0.79771,-1.3697 0.22209,-0.40564 0.60283,-0.9746 0.84609,-1.2644 0.24326,-0.28974 0.56386,-0.71646 0.71244,-0.94826 0.53989,-0.84227 3.7171,-4.06 4.5039,-4.5613 0.14487,-0.0923 0.71383,-0.53076 1.2644,-0.97431 0.55052,-0.44357 1.1236,-0.87301 1.2735,-0.95433 0.14992,-0.0813 0.50552,-0.32888 0.79022,-0.55013 0.63191,-0.4911 3.2033,-2.1248 3.7839,-2.404 0.2318,-0.11148 0.77234,-0.39097 1.2012,-0.62109 0.42887,-0.23011 0.91146,-0.41839 1.0724,-0.41839 0.30276,0 0.62382,0.23588 0.62382,0.45832 0,0.15597 -1.8425,2.0704 -1.9926,2.0704 -0.41988,0 -7.322,6.894 -7.955,7.9456 -0.12096,0.20096 -0.49459,0.71198 -0.8303,1.1356 -0.90849,1.1464 -1.6643,2.2012 -1.7941,2.5039 -0.06325,0.14753 -0.24102,0.43418 -0.39502,0.637 -0.33986,0.44756 -1.1723,2.1634 -1.418,2.9226 -0.23096,0.71381 -0.15851,0.91566 0.3018,0.84096 0.49972,-0.0811 2.2024,-0.93796 3.1254,-1.5729 0.9216,-0.63392 4.4817,-4.1762 5.0007,-4.9757 0.19064,-0.29367 0.61942,-0.84212 0.95284,-1.2188 0.33342,-0.37667 0.81029,-0.99648 1.0597,-1.3773 0.24942,-0.38088 0.53124,-0.75701 0.62625,-0.83585 0.09501,-0.0789 0.27062,-0.3362 0.39025,-0.57187 0.11963,-0.23568 0.37855,-0.64186 0.57537,-0.90263 0.39717,-0.52622 1.0789,-1.5349 1.5624,-2.3118 0.30192,-0.48515 0.43096,-0.68168 1.3185,-2.008 0.21328,-0.31872 0.5686,-0.91139 0.78958,-1.317 0.22099,-0.40565 0.59575,-1.0457 0.83281,-1.4224 0.53597,-0.85163 0.61367,-0.97988 0.98947,-1.6331 0.16669,-0.28974 0.46981,-0.81129 0.6736,-1.159 0.93508,-1.5954 1.4543,-2.5361 2.5876,-4.6886 0.19833,-0.37667 0.39924,-0.73227 0.44647,-0.79022 0.13397,-0.16438 3.0956,-5.8503 3.2654,-6.2691 0.05873,-0.14488 0.15518,-0.33453 0.21433,-0.42145 0.05915,-0.0869 0.17886,-0.32399 0.26602,-0.52682 0.08716,-0.20282 0.20486,-0.43989 0.26154,-0.52681 0.05668,-0.0869 0.15361,-0.27636 0.21539,-0.42096 0.12838,-0.30049 1.7486,-3.5539 1.8892,-3.7935 0.1493,-0.25445 1.0056,-2.1073 1.6947,-3.6668 0.35074,-0.79379 0.70304,-1.5855 0.7829,-1.7593 0.3929,-0.85537 0.66527,-1.5003 0.7342,-1.7385 0.04193,-0.14487 0.13522,-0.35823 0.20733,-0.47413 0.0721,-0.1159 0.19098,-0.40038 0.26418,-0.63218 0.07319,-0.2318 0.19173,-0.51628 0.26341,-0.63218 0.07168,-0.1159 0.19111,-0.40038 0.2654,-0.63218 0.07429,-0.2318 0.17195,-0.46886 0.21702,-0.52681 0.04507,-0.05795 0.17565,-0.36614 0.29017,-0.68486 0.11452,-0.31872 0.335,-0.91139 0.48995,-1.317 0.15495,-0.40564 0.34311,-0.9509 0.41813,-1.2117 0.07502,-0.26077 0.2382,-0.66308 0.36263,-0.89402 0.12443,-0.23094 0.22623,-0.50509 0.22623,-0.60922 0,-0.10413 0.07778,-0.3656 0.17284,-0.58105 0.28093,-0.63672 0.66694,-1.7229 0.81323,-2.2883 0.07497,-0.28975 0.21566,-0.67855 0.31266,-0.86401 0.09699,-0.18546 0.17635,-0.46682 0.17635,-0.62525 0,-0.15843 0.09214,-0.48082 0.20476,-0.71643 0.11262,-0.2356 0.27547,-0.71285 0.3619,-1.0606 0.08643,-0.3477 0.23984,-0.90728 0.34092,-1.2435 0.17144,-0.57029 0.17235,-0.6552 0.01349,-1.2644 -0.09366,-0.35915 -0.224,-0.86636 -0.28966,-1.1271 -0.06565,-0.26077 -0.20922,-0.78232 -0.31905,-1.159 -0.10982,-0.37667 -0.23111,-0.8508 -0.26952,-1.0536 -0.03842,-0.20282 -0.15222,-0.62954 -0.2529,-0.94826 -0.10068,-0.31872 -0.21653,-0.86397 -0.25743,-1.2117 -0.0409,-0.3477 -0.16086,-0.91745 -0.26656,-1.2661 -0.1057,-0.34867 -0.22518,-0.96504 -0.26551,-1.3697 -0.04033,-0.40467 -0.14026,-0.9701 -0.22208,-1.2565 -0.08182,-0.2864 -0.21949,-1.2603 -0.30594,-2.1641 -0.08645,-0.90386 -0.21551,-1.926 -0.28679,-2.2714 -0.08983,-0.43526 -0.12946,-1.9053 -0.12914,-4.7898 4.22e-4,-3.5935 0.02513,-4.2553 0.18112,-4.8467 0.09936,-0.37667 0.22859,-1.0314 0.28716,-1.4549 0.05858,-0.42354 0.1774,-0.90717 0.26405,-1.0747 0.08665,-0.16756 0.15754,-0.36253 0.15754,-0.43327 0,-0.38164 0.69074,-1.496 1.1936,-1.9256 0.46081,-0.39368 0.67028,-0.49143 1.357,-0.63329 0.96357,-0.19903 2.2773,-0.21702 3.0373,-0.04159 0.3006,0.06939 0.83762,0.27089 1.1934,0.44779 0.61591,0.30626 0.66628,0.36136 1.054,1.1529 0.67736,1.383 0.75864,2.9069 0.23878,4.4773 -0.46731,1.4116 -0.75746,1.3108 -1.3878,-0.48208 -0.56384,-1.6039 -1.0248,-2.4813 -1.6265,-3.0958 -0.42692,-0.43599 -0.55479,-0.51269 -0.71331,-0.42785 -0.31835,0.17038 -0.87315,1.4124 -1.0279,2.3012 -0.07864,0.45165 -0.21574,1.2005 -0.30467,1.6641 -0.21097,1.0998 -0.22029,4.9671 -0.0165,6.8486 0.28468,2.6284 0.38417,3.3816 0.64014,4.8467 0.14175,0.81129 0.2841,1.6939 0.31634,1.9613 0.06357,0.52733 0.27072,0.90214 0.44058,0.79716 0.05857,-0.0362 0.13885,-0.38719 0.1784,-0.77998 0.03955,-0.39279 0.16131,-1.1172 0.27057,-1.6097 0.10927,-0.49257 0.22507,-1.1089 0.25734,-1.3697 0.03227,-0.26077 0.15264,-0.99568 0.2675,-1.6331 0.11486,-0.63742 0.25447,-1.5146 0.31025,-1.9492 0.0558,-0.43462 0.17112,-1.1458 0.25628,-1.5804 0.0852,-0.43462 0.23781,-1.2644 0.33921,-1.8438 0.19828,-1.1331 0.36832,-1.5287 0.65608,-1.5261 0.35148,0.0031 0.46114,0.18569 0.66985,1.1152 0.18793,0.837 0.20948,1.2988 0.20056,4.2985 -0.006,2.0584 -0.0713,4.0387 -0.16823,5.1101 -0.087,0.9621 -0.20501,2.6156 -0.26218,3.6744 -0.0572,1.0588 -0.19788,2.4017 -0.3127,2.9842 -0.11481,0.58252 -0.20854,1.2572 -0.20827,1.4992 3.2e-4,0.24203 -0.0794,0.82561 -0.17708,1.2969 -0.17511,0.84491 -0.17422,0.86832 0.0637,1.6858 0.13269,0.45594 0.30376,0.92874 0.38014,1.0507 0.0764,0.12191 0.17132,0.40639 0.21096,0.63218 0.0396,0.22578 0.15832,0.60017 0.26373,0.83196 0.49587,1.0904 0.71736,1.6374 0.78189,1.9313 0.0386,0.17572 0.13581,0.37396 0.21605,0.44055 0.0802,0.06659 0.20231,0.29508 0.27128,0.50775 0.12314,0.37968 1.2987,2.9269 1.6372,3.5476 0.0948,0.17385 0.37635,0.69539 0.62561,1.159 1.1623,2.1617 2.5668,4.4365 3.2445,5.2549 0.23391,0.28247 0.57002,0.74317 0.74692,1.0238 0.1769,0.2806 0.67724,0.93681 1.1119,1.4582 0.43462,0.52143 1.0222,1.2378 1.3058,1.592 0.48549,0.60637 1.055,1.1229 2.6093,2.3663 0.36218,0.28975 0.92976,0.76388 1.2613,1.0536 0.59742,0.52212 1.9139,1.4908 2.5774,1.8965 0.18955,0.1159 0.59681,0.3814 0.90503,0.59001 0.3082,0.20861 0.93968,0.61596 1.4033,0.90522 0.46359,0.28927 0.97993,0.61643 1.1474,0.72702 0.43966,0.29033 0.48931,0.31845 1.0125,0.5735 0.50308,0.24526 0.41964,0.24514 2.4234,0.003 1.1783,-0.14212 3.7098,-0.30559 6.6217,-0.42759 4.4994,-0.18852 10.37,0.24131 12.502,0.91533 0.28975,0.0916 0.79792,0.23022 1.1293,0.308 0.33135,0.0778 0.78107,0.23715 0.99938,0.35415 0.2183,0.117 0.4403,0.21273 0.49333,0.21273 0.48565,0 2.4526,1.3602 2.9237,2.0218 0.88212,1.2388 1.0744,2.5127 0.53898,3.5699 -0.38663,0.76333 -0.68495,0.81479 -1.1946,0.2061 -0.9855,-1.177 -1.2749,-1.4441 -1.9155,-1.7676 -0.37287,-0.18834 -0.74556,-0.34243 -0.82821,-0.34243 -0.0826,0 -0.25474,-0.0732 -0.38243,-0.16262 -0.12769,-0.0894 -0.60051,-0.22783 -1.0507,-0.30755 -0.4502,-0.0797 -0.9523,-0.19629 -1.1158,-0.25905 -0.16346,-0.0628 -0.85095,-0.1622 -1.5278,-0.22095 -0.67681,-0.0587 -1.3728,-0.15044 -1.5466,-0.20376 -0.77998,-0.2392 -6.6592,-0.3826 -9.3773,-0.22872 l -1.159,0.0656 0.54965,0.28975 c 0.30231,0.15936 0.60738,0.28974 0.67793,0.28974 0.0706,0 0.32105,0.0908 0.55666,0.20185 0.80589,0.37974 2.0772,0.85178 2.2941,0.85178 0.11916,0 0.3645,0.0897 0.5452,0.19936 0.18068,0.10964 0.49446,0.23172 0.69729,0.27127 0.37233,0.0726 0.83356,0.23038 2.1357,0.73049 0.39231,0.15067 0.83069,0.27395 0.97418,0.27395 0.1435,0 0.53372,0.0922 0.86716,0.20485 0.33344,0.11267 0.84332,0.23575 1.1331,0.27352 0.28974,0.0378 0.8237,0.15758 1.1866,0.26624 0.98621,0.29533 4.104,0.47586 5.5713,0.3226 2.0003,-0.20893 2.2506,-0.14456 2.2506,0.57867 0,0.47109 -0.19888,0.84246 -0.70251,1.3118 -0.56431,0.52591 -0.79911,0.65108 -1.8789,1.0016 -0.94452,0.30664 -0.95803,0.3078 -3.4243,0.29489 -2.0499,-0.0107 -2.6574,-0.0502 -3.5296,-0.22947 -0.57949,-0.11908 -1.2907,-0.2469 -1.5804,-0.28405 -0.28975,-0.0371 -0.82814,-0.1591 -1.1964,-0.271 -0.36826,-0.1119 -0.77987,-0.20346 -0.91464,-0.20346 -0.13476,0 -0.61575,-0.11372 -1.0689,-0.2527 -0.45312,-0.13899 -1.0135,-0.29973 -1.2453,-0.35721 -0.2318,-0.0575 -0.56369,-0.1552 -0.73754,-0.21716 -0.38464,-0.13711 -1.1546,-0.38609 -2.0019,-0.64741 -0.3477,-0.10723 -0.96407,-0.32213 -1.3697,-0.47755 -0.40564,-0.15543 -0.99321,-0.37227 -1.3057,-0.48187 -0.31249,-0.1096 -0.62067,-0.24071 -0.68486,-0.29135 -0.0642,-0.0506 -0.30634,-0.15264 -0.53814,-0.22667 -0.23179,-0.074 -0.58669,-0.22244 -0.78866,-0.32982 -0.20195,-0.10737 -0.42963,-0.19522 -0.50594,-0.19522 -0.0763,0 -0.31406,-0.0914 -0.52837,-0.2031 -0.2143,-0.1117 -1.2377,-0.61452 -2.2742,-1.1174 l -1.8845,-0.91428 -1.5924,0.12921 c -0.87583,0.0711 -2.0316,0.21683 -2.5683,0.32392 -0.53672,0.10708 -1.485,0.22438 -2.1072,0.26066 -0.62227,0.0363 -1.2974,0.11282 -1.5002,0.1701 -0.20283,0.0573 -1.0326,0.1895 -1.8438,0.29381 -0.8112,0.10431 -1.7833,0.26331 -2.1599,0.35332 -0.37667,0.09 -0.99304,0.20929 -1.3697,0.26507 -0.64145,0.095 -1.2459,0.20504 -3.3189,0.60434 -0.4636,0.0893 -1.2996,0.22983 -1.8577,0.3123 -0.55816,0.0825 -1.1344,0.1954 -1.2805,0.25095 -0.14612,0.0555 -0.56658,0.15228 -0.93438,0.21495 -0.36779,0.0627 -1.0243,0.20351 -1.4589,0.31297 -0.43462,0.10946 -1.0984,0.27678 -1.4751,0.37183 -0.37667,0.095 -0.89822,0.22068 -1.159,0.2792 -0.26077,0.0585 -0.78232,0.19549 -1.159,0.30437 -0.37667,0.10889 -0.92192,0.22752 -1.2117,0.26362 -0.28978,0.0361 -0.71646,0.13263 -0.94826,0.2145 -0.2318,0.0819 -0.76832,0.22124 -1.1923,0.3097 -0.42396,0.0885 -0.85964,0.20837 -0.96819,0.26647 -0.10855,0.0581 -0.49658,0.17361 -0.86229,0.25672 -0.36571,0.0831 -0.90199,0.22713 -1.1917,0.32006 -0.28975,0.0929 -0.92982,0.28989 -1.4224,0.43769 -1.5516,0.46557 -2.5716,0.80392 -2.8659,0.95065 -0.15648,0.078 -0.43459,0.14184 -0.61801,0.14184 -0.25785,0 -0.42639,0.10156 -0.74308,0.44779 -0.22528,0.24628 -0.48608,0.60881 -0.57957,0.80561 -0.09349,0.19681 -0.34227,0.6301 -0.55284,0.96288 -0.43779,0.69184 -0.6902,1.1109 -1.0759,1.7861 -0.30942,0.54167 -1.0001,1.6618 -1.3731,2.2267 -0.13851,0.20982 -0.39408,0.60824 -0.56793,0.88539 -1.0512,1.6758 -1.7903,2.7953 -2.0852,3.1584 -0.14121,0.17385 -0.2917,0.42776 -0.33442,0.56426 -0.04272,0.1365 -0.32353,0.53951 -0.624,0.89558 -0.30048,0.35607 -0.6597,0.83706 -0.79826,1.0689 -0.13855,0.2318 -0.4529,0.64036 -0.69853,0.90793 -0.24564,0.26757 -0.56507,0.71799 -0.70985,1.0009 -0.14477,0.28296 -0.51621,0.77964 -0.82542,1.1037 -0.30921,0.32411 -0.72814,0.81446 -0.93096,1.0897 -0.607,0.82368 -2.2083,2.5648 -3.5067,3.8127 -1.8652,1.7928 -3.8365,3.0796 -5.5018,3.5914 -0.81174,0.24948 -2.4393,0.41593 -2.7921,0.28557 z M 75.25,95.81 c 0.27333,-0.13737 0.5547,-0.24976 0.62525,-0.24976 0.07055,0 0.32105,-0.0909 0.55666,-0.20194 0.5216,-0.24589 1.6467,-0.6794 2.2195,-0.85518 0.2318,-0.0711 0.47804,-0.17415 0.54721,-0.22893 0.06917,-0.0548 0.35365,-0.1628 0.63218,-0.24005 0.27853,-0.0772 0.74348,-0.2354 1.0332,-0.35145 0.28975,-0.11605 0.95353,-0.33855 1.4751,-0.49443 0.52154,-0.15588 1.1142,-0.35142 1.317,-0.43452 0.2028,-0.0831 0.62954,-0.21721 0.94826,-0.29801 0.62746,-0.15905 1.3873,-0.40074 2.0546,-0.65354 0.2318,-0.0878 0.72964,-0.2462 1.1063,-0.35198 0.37667,-0.10577 1.0168,-0.29186 1.4224,-0.41354 0.40565,-0.12167 1.0457,-0.29784 1.4224,-0.39148 0.37668,-0.0937 1.0642,-0.27643 1.5278,-0.40619 0.4636,-0.12976 1.1037,-0.28859 1.4224,-0.35295 0.75582,-0.15263 1.3289,-0.29415 2.4233,-0.59843 1.3908,-0.38668 2.2925,-0.59012 3.2662,-0.73696 0.49257,-0.0743 1.0378,-0.1906 1.2117,-0.2585 0.1739,-0.0679 0.79022,-0.19028 1.3697,-0.27195 0.5795,-0.0817 1.3129,-0.22028 1.6297,-0.30801 0.31686,-0.0877 0.791,-0.16024 1.0536,-0.16112 0.97622,-0.003 0.9033,-0.12163 -0.68073,-1.1047 -0.37207,-0.23091 -1.4871,-1.1401 -1.7407,-1.4194 -0.0877,-0.0966 -0.39594,-0.31054 -0.68486,-0.47535 -0.5822,-0.33212 -4.7844,-4.4815 -5.0409,-4.9775 -0.0859,-0.16601 -0.51269,-0.72429 -0.94853,-1.2406 -0.43585,-0.51633 -0.85452,-1.0588 -0.93038,-1.2054 -0.0759,-0.14666 -0.36315,-0.57043 -0.63841,-0.94172 -0.27526,-0.37128 -0.50047,-0.70901 -0.50047,-0.75051 0,-0.0415 -0.16549,-0.28363 -0.36775,-0.53807 -0.20226,-0.25444 -0.3682,-0.51246 -0.36876,-0.57337 -5.3e-4,-0.06092 -0.18423,-0.39281 -0.40814,-0.73754 -0.35935,-0.55325 -1.0574,-1.7709 -1.7486,-3.0501 -0.12525,-0.2318 -0.27908,-0.51628 -0.34185,-0.63218 -0.11459,-0.21156 -0.77683,-1.6025 -1.3889,-2.9172 -0.18041,-0.38751 -0.32802,-0.77286 -0.32802,-0.85634 0,-0.08348 -0.06795,-0.20817 -0.151,-0.2771 -0.1213,-0.10067 -0.18114,-0.0773 -0.30426,0.1188 -0.0843,0.13426 -0.18432,0.42126 -0.22228,0.63778 -0.03795,0.21651 -0.16077,0.59582 -0.27292,0.8429 -0.11215,0.24708 -0.20599,0.56777 -0.20854,0.71265 -0.0025,0.14487 -0.10287,0.47677 -0.22293,0.73754 -0.12007,0.26077 -0.28087,0.68749 -0.35734,0.94826 -0.07647,0.26077 -0.26562,0.80602 -0.42032,1.2117 -0.15471,0.40565 -0.34942,0.94976 -0.43269,1.2091 -0.08327,0.25938 -0.24527,0.6655 -0.36,0.90251 -0.11473,0.237 -0.2086,0.48601 -0.2086,0.55336 0,0.06735 -0.11333,0.37241 -0.25184,0.67793 -0.234,0.51613 -0.44415,1.0114 -0.99569,2.3466 -0.56347,1.3641 -0.89209,2.1162 -0.96677,2.2126 -0.04489,0.0579 -0.36927,0.74544 -0.72085,1.5278 -0.54456,1.2117 -2.7441,5.6373 -3.5608,7.1646 -0.13945,0.26077 -0.60579,1.1379 -1.0363,1.9492 -1.9953,3.76 -3.1179,5.7929 -3.2987,5.9738 -0.06968,0.0697 -0.12668,0.23892 -0.12668,0.37611 0,0.28982 0.14543,0.26778 0.9711,-0.14718 z M 14.696,65.74 4.37,65.68459 3.57978,65.43836 c -1.3569,-0.4228 -2.3611,-1.2744 -3.2029,-2.7162 l -0.37945,-0.6499 0,-15.444 c 0,-9.2976 0.03847,-15.444 0.09665,-15.444 0.05316,0 0.18122,-0.22147 0.2846,-0.49215 0.2525,-0.66118 1.4705,-1.8795 2.3182,-2.3187 1.3841,-0.71716 -0.91084,-0.67307 34.855,-0.66961 36.005,0.0035 33.516,-0.04778 34.923,0.71926 0.9664,0.52665 1.8025,1.4057 2.2964,2.4144 l 0.40196,0.82087 0,14.961 0,14.961 -0.33773,0.8179 c -0.18575,0.44984 -0.54135,1.0558 -0.79022,1.3465 -0.60838,0.71077 -1.6867,1.4257 -2.5712,1.7047 l -0.72604,0.22904 -13.961,0.03189 c -7.6783,0.01754 -17.967,0.04371 -22.864,0.05815 -4.8967,0.01445 -13.55,0.0013 -19.229,-0.02914 z m 0.68486,-10.426 c 0.13296,-0.08394 0.16641,-0.61426 0.21072,-3.3407 l 0.05268,-3.2409 0.26341,-0.13313 c 0.19347,-0.09778 1.0531,-0.13354 3.2377,-0.13468 2.8951,-0.0015 2.9953,-0.0086 3.763,-0.26632 1.313,-0.44074 1.8036,-0.77785 2.5065,-1.722 0.63084,-0.8474 0.92016,-1.8934 0.92213,-3.3337 0.0014,-0.96336 -0.04367,-1.2945 -0.2669,-1.9648 -0.53133,-1.5954 -1.5328,-2.565 -3.2085,-3.1064 l -0.89558,-0.28934 -4.3466,-0.04432 c -2.3906,-0.02437 -4.465,-0.01461 -4.6096,0.02169 l -0.26298,0.06601 0,8.7255 c 0,4.799 0.03161,8.7571 0.07024,8.7958 0.10878,0.10878 2.3857,0.07968 2.5638,-0.03277 z m 0.48888,-9.2938 -0.27614,-0.24384 -0.0093,-2.5814 c -0.0051,-1.4198 0.02197,-2.661 0.06012,-2.7584 0.13016,-0.33221 0.66665,-0.40254 3.0447,-0.39918 2.2573,0.0032 2.3447,0.01123 2.8554,0.26244 0.28975,0.14253 0.58166,0.25958 0.64871,0.26011 0.20171,0.0016 0.97515,1.0018 1.1434,1.4787 0.20047,0.5682 0.20136,1.5313 0.0019,2.0965 -0.22772,0.64544 -0.86425,1.3385 -1.5833,1.7238 l -0.63218,0.33881 -2.4886,0.03311 c -2.4737,0.03292 -2.4903,0.03166 -2.7648,-0.21072 z m 23.06,9.1861 c 0.4636,-0.11453 0.92243,-0.2088 1.0196,-0.20948 0.29398,-0.0021 1.5583,-0.71014 2.1759,-1.2186 1.0133,-0.83424 2.098,-2.6214 2.3306,-3.8401 0.06085,-0.31872 0.18177,-0.83875 0.26873,-1.1556 0.22546,-0.82159 0.21789,-3.6368 -0.01206,-4.4855 -0.09358,-0.34538 -0.23014,-0.88874 -0.30346,-1.2075 -0.29512,-1.2831 -1.2462,-2.8532 -2.2195,-3.6645 -0.74122,-0.61778 -1.247,-0.88027 -2.5223,-1.3089 l -0.94826,-0.31874 -4.2265,-0.05204 c -3.0777,-0.0379 -4.2882,-0.01904 -4.4534,0.06937 l -0.22687,0.12142 0.02815,8.5909 c 0.02741,8.3654 0.03353,8.5948 0.23267,8.7404 0.16799,0.12282 0.90206,0.14931 4.1091,0.14828 3.5319,-0.0011 3.9851,-0.02112 4.7475,-0.20948 z m -5.5315,-2.0905 c -0.14487,-0.01977 -0.34638,-0.11009 -0.44779,-0.20071 -0.17165,-0.15338 -0.18438,-0.59273 -0.18438,-6.3589 l 0,-6.1941 0.23417,-0.16402 c 0.19128,-0.13398 0.58206,-0.16356 2.1336,-0.1615 1.0447,0.0014 2.0654,0.04563 2.2682,0.09832 1.7993,0.46747 2.162,0.64353 3.0239,1.4678 1.0692,1.0224 1.4863,2.2965 1.5777,4.8192 0.0387,1.0679 0.0123,1.5105 -0.11585,1.942 -0.09129,0.30738 -0.16597,0.6727 -0.16597,0.81183 0,0.13913 -0.14715,0.5928 -0.327,1.0082 -0.60399,1.3949 -1.842,2.3666 -3.4008,2.6693 -0.80695,0.15673 -4.0243,0.34051 -4.5958,0.26252 z m 17.602,2.1922 c 0.19544,-0.1046 0.2038,-0.25804 0.2038,-3.7404 0,-3.4908 0.0081,-3.6395 0.21072,-3.842 0.20288,-0.20288 0.3512,-0.21072 3.9827,-0.21072 2.7933,0 3.8048,-0.0328 3.8984,-0.12644 0.14351,-0.14351 0.17529,-1.8461 0.03849,-2.0616 -0.0653,-0.10288 -0.94594,-0.13911 -3.8413,-0.15804 -4.6703,-0.03054 -4.2207,0.19988 -4.2738,-2.1907 -0.04211,-1.8963 0.0099,-2.337 0.31178,-2.6388 0.20323,-0.20323 0.34482,-0.20938 4.4644,-0.1939 2.34,0.0088 4.3053,-0.01544 4.3675,-0.05386 0.06815,-0.04212 0.11302,-0.48426 0.11302,-1.1136 0,-0.92404 -0.02337,-1.0562 -0.2038,-1.1528 -0.28076,-0.15026 -11.428,-0.15026 -11.709,0 -0.19895,0.10647 -0.2038,0.31478 -0.2038,8.7485 l 0,8.6394 0.23707,0.09529 c 0.3299,0.1326 2.156,0.13228 2.4039,-4.21e-4 z" />
</svg>
