<?xml version="1.0" encoding="UTF-8" standalone="no"?>
<svg
   xmlns:dc="http://purl.org/dc/elements/1.1/"
   xmlns:cc="http://creativecommons.org/ns#"
   xmlns:rdf="http://www.w3.org/1999/02/22-rdf-syntax-ns#"
   xmlns:svg="http://www.w3.org/2000/svg"
   xmlns="http://www.w3.org/2000/svg"
   xmlns:sodipodi="http://sodipodi.sourceforge.net/DTD/sodipodi-0.dtd"
   xmlns:inkscape="http://www.inkscape.org/namespaces/inkscape"
   width="72.074mm"
   height="72.106mm"
   version="1.1"
   viewBox="0 0 255.37909 255.49455"
   id="svg2"
   inkscape:version="0.91 r13725"
   sodipodi:docname="uib.svg">
  <defs
     id="defs12" />
  <sodipodi:namedview
     pagecolor="#ffffff"
     bordercolor="#666666"
     borderopacity="1"
     objecttolerance="10"
     gridtolerance="10"
     guidetolerance="10"
     inkscape:pageopacity="0"
     inkscape:pageshadow="2"
     inkscape:window-width="1309"
     inkscape:window-height="1035"
     id="namedview10"
     showgrid="false"
     inkscape:zoom="0.9237018"
     inkscape:cx="126.60755"
     inkscape:cy="127.74686"
     inkscape:window-x="993"
     inkscape:window-y="125"
     inkscape:window-maximized="0"
     inkscape:current-layer="layer2" />
  <metadata
     id="metadata4">
    <rdf:RDF>
      <cc:Work
         rdf:about="">
        <dc:format>image/svg+xml</dc:format>
        <dc:type
           rdf:resource="http://purl.org/dc/dcmitype/StillImage" />
        <dc:title />
      </cc:Work>
    </rdf:RDF>
  </metadata>
  <g
     inkscape:groupmode="layer"
     id="layer2"
     inkscape:label="Layer 2">
    <path
       style="fill:#ffffff;fill-rule:evenodd;stroke:#ffffff;stroke-width:1px;stroke-linecap:butt;stroke-linejoin:miter;stroke-opacity:1"
       d="m 21.65105,125.58206 c 4.330417,3.24783 97.43436,105.0126 97.43436,105.0126 L 236.00665,125.58206 125.58103,23.817289 Z"
       id="path4144"
       inkscape:connector-curvature="0" />
  </g>
  <g
     inkscape:groupmode="layer"
     id="layer1"
     inkscape:label="Layer 1">
    <g
       style=""
       transform="translate(-188.48,-150.77)"
       id="g6">
      <path
         d="m252.21 342.54c-35.051-35.051-63.729-63.833-63.729-63.961s28.704-28.935 63.787-64.018l63.787-63.787 63.903 63.902 63.903 63.902-63.845 63.845c-35.115 35.115-63.897 63.845-63.961 63.845-0.0638 0-28.794-28.678-63.845-63.729zm53.5 2.8129c2.4637-1.4837 3.9633-3.1988 8.8229-10.09l1.8256-2.589 0.73456 0.56027c0.70194 0.53539 1.1102 1.2948 3.3274 6.1893 0.88004 1.9427 2.8038 4.0181 4.6153 4.9792 2.269 1.2038 3.7846 1.5411 6.879 1.5309 2.5067-8e-3 2.9903-0.0816 4.9459-0.75029 2.8567-0.97683 6.8763-3.045 10.451-5.3772 3.5576-2.3211 4.6766-3.2199 5.3348-4.285 0.45733-0.73998 1.6836-3.873 1.9896-5.0833 0.19078-0.75456-0.72465-1.6787-2.054-2.0734-2.0744-0.61604-3.3415-0.46802-7.0774 0.8268-8.9514 3.1025-10.242 3.4821-12.291 3.6136-3.301 0.21201-5.8092-0.64467-8.0261-2.7413-1.6124-1.5249-2.481-3.3761-3.5675-7.6028-1.0287-4.002-1.5715-5.26-2.6953-6.2467-1.5379-1.3503-2.2527-0.92548-4.1244 2.4512-2.9783 5.3729-5.3144 8.4358-8.5855 11.257-1.1598 1.0002-1.7216 1.3313-2.2589 1.3313-1.4861 0-3.1052-2.4382-6.2135-9.357-2.5032-5.5719-3.6274-5.6738-8.3874-0.76029-2.8085 2.899-6.3958 7.0454-7.8584 9.0834-1.8757 2.6133-2.0942 4.6833-1.0014 9.4848 0.72235 3.1738 1.1462 4.1777 2.0394 4.8303 0.62342 0.45552 0.63707 0.4557 1.1259 0.0149 0.27216-0.2454 2.1194-2.8267 4.105-5.7362 3.4381-5.0378 4.446-6.2362 6.016-7.1533l0.69118-0.40371 2.1402 5.0343c3.3742 7.9371 4.0268 9.0013 5.9287 9.6676 1.0955 0.38379 1.726 0.26338 3.1679-0.60494zm-29.066-43.836c5.7572-1.2293 9.8986-4.4062 12.115-9.2935 1.4682-3.2381 1.437-2.8291 1.5809-20.723l0.1314-16.34 0.65353-0.98721c0.79869-1.2065 2.0961-1.8331 4.2025-2.0298l1.511-0.1411v-1.3557-1.3557h-8.5667-8.5667v1.4796 1.4796l1.6995 0.0858c2.0317 0.1026 3.2994 0.80127 3.9947 2.2016 0.41853 0.84292 0.44462 1.6732 0.50419 16.049 0.0701 16.924 0.0335 17.446-1.4414 20.552-0.95821 2.0177-2.8932 4.1536-4.6989 5.1867-2.0637 1.1807-3.7969 1.6123-7.0379 1.7524-2.5795 0.11152-3.1272 0.0661-4.602-0.38187-2.0607-0.62593-3.1087-1.2718-4.3477-2.6794-1.0985-1.2479-1.7908-2.9191-2.139-5.1634-0.15781-1.0171-0.21917-7.3291-0.17493-17.996 0.0659-15.895 0.0832-16.46 0.53119-17.353 0.25468-0.50769 0.8041-1.1501 1.2209-1.4276 0.73759-0.49106 1.1705-0.59671 3.6991-0.90281l1.2155-0.14714v-1.2517-1.2517h-12.618-12.618v1.2734 1.2734l0.86824 2e-3c1.5437 3e-3 3.8478 0.47637 4.6087 0.9466 0.4135 0.25556 0.97926 0.94096 1.2789 1.5494l0.53738 1.0909 0.1244 16.786c0.11435 15.43 0.15853 16.889 0.54699 18.059 1.1222 3.3804 3.0837 6.088 5.6446 7.7912 2.3068 1.5342 6.975 3.0423 10.973 3.5449 2.2923 0.28815 7.1041 0.11921 9.1703-0.32197zm53.534-1.0288v-1.36l-2.6047-0.10279c-2.9852-0.11781-4.1283-0.51803-4.7566-1.6653-0.36233-0.66162-0.40059-2.406-0.46271-21.096-0.0373-11.206-7e-3 -20.71 0.0671-21.12 0.18032-0.99725 1.1604-2.1189 2.3064-2.6394 0.69948-0.31773 1.5056-0.42631 3.1931-0.43012l2.2574-5e-3v-1.3892-1.3892h-13.748-13.748l0.10559 1.0998c0.166 1.7291 0.10271 1.6786 2.1036 1.6786 3.2096 0 5.0758 0.92939 5.6106 2.7943 0.14048 0.48982 0.22697 8.4761 0.22697 20.958v20.166l-0.53316 1.0082c-0.83349 1.5762-1.9934 2.0745-4.8285 2.0745h-2.2789v1.3892 1.3892h13.545 13.545v-1.3601zm39.592 0.80093c3.514-0.9882 6.6656-2.8545 8.9572-5.3043 1.734-1.8536 2.7502-3.8526 3.2511-6.3951 0.843-4.279-0.74507-8.6515-4.192-11.542-1.5894-1.3328-3.0877-2.0338-6.8371-3.1984-2.3896-0.74228-3.008-1.01-2.5685-1.1123 0.31836-0.0741 1.4925-0.34278 2.6093-0.59716 2.6212-0.59704 4.4537-1.5361 6.0623-3.1066 2.3252-2.2701 3.6524-6.1426 3.1485-9.1868-0.81945-4.9512-4.9863-9.3411-10.663-11.234-1.1741-0.39141-2.4834-0.43026-16.844-0.49972l-15.57-0.0753v1.4858 1.4858l2.5114 0.10347c3.8325 0.15791 4.7821 0.9004 5.1568 4.0323 0.12612 1.054 0.19106 10.013 0.1534 21.161-0.0615 18.191-0.0902 19.378-0.48693 20.106-0.61129 1.1204-1.928 1.6203-4.756 1.8056l-2.3472 0.15382v1.2493 1.2493l15.455-0.0786c14.12-0.0718 15.585-0.11518 16.96-0.50186zm-10.39-2.9006c-0.92595-0.23482-1.7868-0.8413-2.4452-1.7228-0.4624-0.61902-0.47966-0.95781-0.55052-10.81l-0.0732-10.171 2.3885 3e-3c5.1604 7e-3 8.2718 1.5756 9.8142 4.9467 1.4083 3.0779 1.7873 7.916 0.85468 10.91-1.2716 4.0819-4.2818 6.7748-7.7852 6.9646-0.78178 0.0424-1.7733-0.0122-2.2033-0.12127zm-2.7016-25.587-0.5683-0.5683v-9.7207-9.7206l1.0735-0.16098c0.59042-0.0885 1.8594-0.10155 2.8198-0.0289 3.4432 0.26041 6.2537 2.2498 7.7516 5.4867 0.5857 1.2657 0.71369 1.8735 0.80497 3.8229 0.12783 2.7297-0.17245 4.4254-1.1192 6.3199-1.614 3.2298-4.9782 5.1383-9.0576 5.1383-0.89803 0-1.2559-0.11928-1.7049-0.56831zm-16.376-37.566c0.33788-0.51568 0.41051-1.1404 0.41051-3.5309 0-2.508-0.0881-3.199-0.64586-5.0635-2.6693-8.9237-8.1871-15.061-15.929-17.716-4.0037-1.3732-9.1617-1.654-13.409-0.73-9.592 2.0869-16.117 7.1141-19.761 15.224-0.95667 2.1294-0.9612 2.1527-0.95599 4.9179 4e-3 2.3576 0.0866 2.9819 0.54235 4.1224 0.67819 1.6971 2.032 3.1708 2.9127 3.1708 0.91486 0 2.0526-1.239 2.5513-2.7784 1.8835-5.814 6.6346-9.4601 14.525-11.147 3.5765-0.76446 8.478-0.71554 11.647 0.11624 6.1992 1.6273 12.3 6.1566 15.43 11.455 1.086 1.8386 1.6738 2.5588 2.1036 2.5776 0.0926 4e-3 0.35304-0.27457 0.57883-0.61916z"
         fill="#014aaf"
         id="path8" />
    </g>
  </g>
</svg>
